M48
INCH,TZ
T1C0.032
T2C0.040
%
G90
G05
T1
X5.75Y-3.35
X5.75Y-3.45
X5.85Y-3.35
X5.85Y-3.45
X5.95Y-3.35
X5.95Y-3.45
T2
X5.5Y-3.6
X5.5Y-3.7
X5.5Y-3.8
X6.Y-3.8
X6.1Y-3.8
X6.4Y-3.35
X6.4Y-3.45
X6.4Y-3.55
X6.7Y-3.35
X6.7Y-3.45
X6.7Y-3.55
X7.Y-3.35
X7.Y-3.45
X7.Y-3.55
X7.5Y-3.35
X7.5Y-3.45
X7.5Y-3.55
T0
M30
