G04 #@! TF.FileFunction,Legend,Top*
%FSLAX46Y46*%
G04 Gerber Fmt 4.6, Leading zero omitted, Abs format (unit mm)*
G04 Created by KiCad (PCBNEW 4.0.2-stable) date 4/25/2016 1:20:28 PM*
%MOMM*%
G01*
G04 APERTURE LIST*
%ADD10C,0.100000*%
%ADD11C,0.300000*%
%ADD12C,0.150000*%
G04 APERTURE END LIST*
D10*
D11*
X172382858Y-85908571D02*
X172382858Y-84408571D01*
X172740001Y-84408571D01*
X172954286Y-84480000D01*
X173097144Y-84622857D01*
X173168572Y-84765714D01*
X173240001Y-85051429D01*
X173240001Y-85265714D01*
X173168572Y-85551429D01*
X173097144Y-85694286D01*
X172954286Y-85837143D01*
X172740001Y-85908571D01*
X172382858Y-85908571D01*
X173811429Y-85480000D02*
X174525715Y-85480000D01*
X173668572Y-85908571D02*
X174168572Y-84408571D01*
X174668572Y-85908571D01*
X174954286Y-84408571D02*
X175811429Y-84408571D01*
X175382858Y-85908571D02*
X175382858Y-84408571D01*
X171990000Y-88308571D02*
X171990000Y-86808571D01*
X172561428Y-86808571D01*
X172704286Y-86880000D01*
X172775714Y-86951429D01*
X172847143Y-87094286D01*
X172847143Y-87308571D01*
X172775714Y-87451429D01*
X172704286Y-87522857D01*
X172561428Y-87594286D01*
X171990000Y-87594286D01*
X173347143Y-86808571D02*
X173704286Y-88308571D01*
X173990000Y-87237143D01*
X174275714Y-88308571D01*
X174632857Y-86808571D01*
X176061429Y-88308571D02*
X175561429Y-87594286D01*
X175204286Y-88308571D02*
X175204286Y-86808571D01*
X175775714Y-86808571D01*
X175918572Y-86880000D01*
X175990000Y-86951429D01*
X176061429Y-87094286D01*
X176061429Y-87308571D01*
X175990000Y-87451429D01*
X175918572Y-87522857D01*
X175775714Y-87594286D01*
X175204286Y-87594286D01*
X172847143Y-89280000D02*
X172704286Y-89208571D01*
X172490000Y-89208571D01*
X172275715Y-89280000D01*
X172132857Y-89422857D01*
X172061429Y-89565714D01*
X171990000Y-89851429D01*
X171990000Y-90065714D01*
X172061429Y-90351429D01*
X172132857Y-90494286D01*
X172275715Y-90637143D01*
X172490000Y-90708571D01*
X172632857Y-90708571D01*
X172847143Y-90637143D01*
X172918572Y-90565714D01*
X172918572Y-90065714D01*
X172632857Y-90065714D01*
X173561429Y-90708571D02*
X173561429Y-89208571D01*
X174418572Y-90708571D01*
X174418572Y-89208571D01*
X175132858Y-90708571D02*
X175132858Y-89208571D01*
X175490001Y-89208571D01*
X175704286Y-89280000D01*
X175847144Y-89422857D01*
X175918572Y-89565714D01*
X175990001Y-89851429D01*
X175990001Y-90065714D01*
X175918572Y-90351429D01*
X175847144Y-90494286D01*
X175704286Y-90637143D01*
X175490001Y-90708571D01*
X175132858Y-90708571D01*
X164762858Y-85908571D02*
X164762858Y-84408571D01*
X165120001Y-84408571D01*
X165334286Y-84480000D01*
X165477144Y-84622857D01*
X165548572Y-84765714D01*
X165620001Y-85051429D01*
X165620001Y-85265714D01*
X165548572Y-85551429D01*
X165477144Y-85694286D01*
X165334286Y-85837143D01*
X165120001Y-85908571D01*
X164762858Y-85908571D01*
X166191429Y-85480000D02*
X166905715Y-85480000D01*
X166048572Y-85908571D02*
X166548572Y-84408571D01*
X167048572Y-85908571D01*
X167334286Y-84408571D02*
X168191429Y-84408571D01*
X167762858Y-85908571D02*
X167762858Y-84408571D01*
X164370000Y-88308571D02*
X164370000Y-86808571D01*
X164941428Y-86808571D01*
X165084286Y-86880000D01*
X165155714Y-86951429D01*
X165227143Y-87094286D01*
X165227143Y-87308571D01*
X165155714Y-87451429D01*
X165084286Y-87522857D01*
X164941428Y-87594286D01*
X164370000Y-87594286D01*
X165727143Y-86808571D02*
X166084286Y-88308571D01*
X166370000Y-87237143D01*
X166655714Y-88308571D01*
X167012857Y-86808571D01*
X168441429Y-88308571D02*
X167941429Y-87594286D01*
X167584286Y-88308571D02*
X167584286Y-86808571D01*
X168155714Y-86808571D01*
X168298572Y-86880000D01*
X168370000Y-86951429D01*
X168441429Y-87094286D01*
X168441429Y-87308571D01*
X168370000Y-87451429D01*
X168298572Y-87522857D01*
X168155714Y-87594286D01*
X167584286Y-87594286D01*
X165227143Y-89280000D02*
X165084286Y-89208571D01*
X164870000Y-89208571D01*
X164655715Y-89280000D01*
X164512857Y-89422857D01*
X164441429Y-89565714D01*
X164370000Y-89851429D01*
X164370000Y-90065714D01*
X164441429Y-90351429D01*
X164512857Y-90494286D01*
X164655715Y-90637143D01*
X164870000Y-90708571D01*
X165012857Y-90708571D01*
X165227143Y-90637143D01*
X165298572Y-90565714D01*
X165298572Y-90065714D01*
X165012857Y-90065714D01*
X165941429Y-90708571D02*
X165941429Y-89208571D01*
X166798572Y-90708571D01*
X166798572Y-89208571D01*
X167512858Y-90708571D02*
X167512858Y-89208571D01*
X167870001Y-89208571D01*
X168084286Y-89280000D01*
X168227144Y-89422857D01*
X168298572Y-89565714D01*
X168370001Y-89851429D01*
X168370001Y-90065714D01*
X168298572Y-90351429D01*
X168227144Y-90494286D01*
X168084286Y-90637143D01*
X167870001Y-90708571D01*
X167512858Y-90708571D01*
X184174286Y-85337143D02*
X184245715Y-85265714D01*
X184388572Y-85194286D01*
X184674286Y-85337143D01*
X184817143Y-85265714D01*
X184888572Y-85194286D01*
X186245715Y-85908571D02*
X185388572Y-85908571D01*
X185817144Y-85908571D02*
X185817144Y-84408571D01*
X185674287Y-84622857D01*
X185531429Y-84765714D01*
X185388572Y-84837143D01*
X187674286Y-85908571D02*
X186817143Y-85908571D01*
X187245715Y-85908571D02*
X187245715Y-84408571D01*
X187102858Y-84622857D01*
X186960000Y-84765714D01*
X186817143Y-84837143D01*
X184174286Y-87737143D02*
X184245715Y-87665714D01*
X184388572Y-87594286D01*
X184674286Y-87737143D01*
X184817143Y-87665714D01*
X184888572Y-87594286D01*
X186245715Y-88308571D02*
X185388572Y-88308571D01*
X185817144Y-88308571D02*
X185817144Y-86808571D01*
X185674287Y-87022857D01*
X185531429Y-87165714D01*
X185388572Y-87237143D01*
X187174286Y-86808571D02*
X187317143Y-86808571D01*
X187460000Y-86880000D01*
X187531429Y-86951429D01*
X187602858Y-87094286D01*
X187674286Y-87380000D01*
X187674286Y-87737143D01*
X187602858Y-88022857D01*
X187531429Y-88165714D01*
X187460000Y-88237143D01*
X187317143Y-88308571D01*
X187174286Y-88308571D01*
X187031429Y-88237143D01*
X186960000Y-88165714D01*
X186888572Y-88022857D01*
X186817143Y-87737143D01*
X186817143Y-87380000D01*
X186888572Y-87094286D01*
X186960000Y-86951429D01*
X187031429Y-86880000D01*
X187174286Y-86808571D01*
X185602857Y-90137143D02*
X185674286Y-90065714D01*
X185817143Y-89994286D01*
X186102857Y-90137143D01*
X186245714Y-90065714D01*
X186317143Y-89994286D01*
X186960000Y-90708571D02*
X187245715Y-90708571D01*
X187388572Y-90637143D01*
X187460000Y-90565714D01*
X187602858Y-90351429D01*
X187674286Y-90065714D01*
X187674286Y-89494286D01*
X187602858Y-89351429D01*
X187531429Y-89280000D01*
X187388572Y-89208571D01*
X187102858Y-89208571D01*
X186960000Y-89280000D01*
X186888572Y-89351429D01*
X186817143Y-89494286D01*
X186817143Y-89851429D01*
X186888572Y-89994286D01*
X186960000Y-90065714D01*
X187102858Y-90137143D01*
X187388572Y-90137143D01*
X187531429Y-90065714D01*
X187602858Y-89994286D01*
X187674286Y-89851429D01*
X153511429Y-85538571D02*
X153797143Y-85538571D01*
X153940001Y-85610000D01*
X154082858Y-85752857D01*
X154154286Y-86038571D01*
X154154286Y-86538571D01*
X154082858Y-86824286D01*
X153940001Y-86967143D01*
X153797143Y-87038571D01*
X153511429Y-87038571D01*
X153368572Y-86967143D01*
X153225715Y-86824286D01*
X153154286Y-86538571D01*
X153154286Y-86038571D01*
X153225715Y-85752857D01*
X153368572Y-85610000D01*
X153511429Y-85538571D01*
X155297144Y-86252857D02*
X154797144Y-86252857D01*
X154797144Y-87038571D02*
X154797144Y-85538571D01*
X155511430Y-85538571D01*
X156582858Y-86252857D02*
X156082858Y-86252857D01*
X156082858Y-87038571D02*
X156082858Y-85538571D01*
X156797144Y-85538571D01*
X141311428Y-85538571D02*
X141597142Y-85538571D01*
X141740000Y-85610000D01*
X141882857Y-85752857D01*
X141954285Y-86038571D01*
X141954285Y-86538571D01*
X141882857Y-86824286D01*
X141740000Y-86967143D01*
X141597142Y-87038571D01*
X141311428Y-87038571D01*
X141168571Y-86967143D01*
X141025714Y-86824286D01*
X140954285Y-86538571D01*
X140954285Y-86038571D01*
X141025714Y-85752857D01*
X141168571Y-85610000D01*
X141311428Y-85538571D01*
X142597143Y-87038571D02*
X142597143Y-85538571D01*
X143454286Y-87038571D01*
X143454286Y-85538571D01*
X151598572Y-93872857D02*
X152741429Y-93872857D01*
X152170000Y-93301429D02*
X152170000Y-94444286D01*
X154598572Y-93872857D02*
X155741429Y-93872857D01*
X142367143Y-90830000D02*
X142224286Y-90758571D01*
X142010000Y-90758571D01*
X141795715Y-90830000D01*
X141652857Y-90972857D01*
X141581429Y-91115714D01*
X141510000Y-91401429D01*
X141510000Y-91615714D01*
X141581429Y-91901429D01*
X141652857Y-92044286D01*
X141795715Y-92187143D01*
X142010000Y-92258571D01*
X142152857Y-92258571D01*
X142367143Y-92187143D01*
X142438572Y-92115714D01*
X142438572Y-91615714D01*
X142152857Y-91615714D01*
X143081429Y-92258571D02*
X143081429Y-90758571D01*
X143938572Y-92258571D01*
X143938572Y-90758571D01*
X144652858Y-92258571D02*
X144652858Y-90758571D01*
X145010001Y-90758571D01*
X145224286Y-90830000D01*
X145367144Y-90972857D01*
X145438572Y-91115714D01*
X145510001Y-91401429D01*
X145510001Y-91615714D01*
X145438572Y-91901429D01*
X145367144Y-92044286D01*
X145224286Y-92187143D01*
X145010001Y-92258571D01*
X144652858Y-92258571D01*
X142367143Y-93230000D02*
X142224286Y-93158571D01*
X142010000Y-93158571D01*
X141795715Y-93230000D01*
X141652857Y-93372857D01*
X141581429Y-93515714D01*
X141510000Y-93801429D01*
X141510000Y-94015714D01*
X141581429Y-94301429D01*
X141652857Y-94444286D01*
X141795715Y-94587143D01*
X142010000Y-94658571D01*
X142152857Y-94658571D01*
X142367143Y-94587143D01*
X142438572Y-94515714D01*
X142438572Y-94015714D01*
X142152857Y-94015714D01*
X143081429Y-94658571D02*
X143081429Y-93158571D01*
X143938572Y-94658571D01*
X143938572Y-93158571D01*
X144652858Y-94658571D02*
X144652858Y-93158571D01*
X145010001Y-93158571D01*
X145224286Y-93230000D01*
X145367144Y-93372857D01*
X145438572Y-93515714D01*
X145510001Y-93801429D01*
X145510001Y-94015714D01*
X145438572Y-94301429D01*
X145367144Y-94444286D01*
X145224286Y-94587143D01*
X145010001Y-94658571D01*
X144652858Y-94658571D01*
X141974286Y-95558571D02*
X142474286Y-97058571D01*
X142974286Y-95558571D01*
X143474286Y-97058571D02*
X143474286Y-96058571D01*
X143474286Y-95558571D02*
X143402857Y-95630000D01*
X143474286Y-95701429D01*
X143545714Y-95630000D01*
X143474286Y-95558571D01*
X143474286Y-95701429D01*
X144188572Y-96058571D02*
X144188572Y-97058571D01*
X144188572Y-96201429D02*
X144260000Y-96130000D01*
X144402858Y-96058571D01*
X144617143Y-96058571D01*
X144760000Y-96130000D01*
X144831429Y-96272857D01*
X144831429Y-97058571D01*
D12*
X153670000Y-97790000D02*
X151130000Y-97790000D01*
X156490000Y-98070000D02*
X154940000Y-98070000D01*
X153670000Y-97790000D02*
X153670000Y-95250000D01*
X154940000Y-94970000D02*
X156490000Y-94970000D01*
X156490000Y-94970000D02*
X156490000Y-98070000D01*
X153670000Y-95250000D02*
X151130000Y-95250000D01*
X151130000Y-95250000D02*
X151130000Y-97790000D01*
X161290000Y-86360000D02*
X161290000Y-91440000D01*
X161290000Y-91440000D02*
X163830000Y-91440000D01*
X163830000Y-91440000D02*
X163830000Y-86360000D01*
X164110000Y-83540000D02*
X164110000Y-85090000D01*
X163830000Y-86360000D02*
X161290000Y-86360000D01*
X161010000Y-85090000D02*
X161010000Y-83540000D01*
X161010000Y-83540000D02*
X164110000Y-83540000D01*
X168910000Y-86360000D02*
X168910000Y-91440000D01*
X168910000Y-91440000D02*
X171450000Y-91440000D01*
X171450000Y-91440000D02*
X171450000Y-86360000D01*
X171730000Y-83540000D02*
X171730000Y-85090000D01*
X171450000Y-86360000D02*
X168910000Y-86360000D01*
X168630000Y-85090000D02*
X168630000Y-83540000D01*
X168630000Y-83540000D02*
X171730000Y-83540000D01*
X176530000Y-86360000D02*
X176530000Y-91440000D01*
X176530000Y-91440000D02*
X179070000Y-91440000D01*
X179070000Y-91440000D02*
X179070000Y-86360000D01*
X179350000Y-83540000D02*
X179350000Y-85090000D01*
X179070000Y-86360000D02*
X176530000Y-86360000D01*
X176250000Y-85090000D02*
X176250000Y-83540000D01*
X176250000Y-83540000D02*
X179350000Y-83540000D01*
X147828000Y-86360000D02*
G75*
G03X147828000Y-86360000I-508000J0D01*
G01*
X148590000Y-86868000D02*
X147320000Y-86868000D01*
X147320000Y-85852000D02*
X148590000Y-85852000D01*
X149098000Y-86360000D02*
G75*
G03X148590000Y-85852000I-508000J0D01*
G01*
X148590000Y-86868000D02*
G75*
G03X149098000Y-86360000I0J508000D01*
G01*
X150524406Y-86360000D02*
G75*
G03X150524406Y-86360000I-1934406J0D01*
G01*
X152400000Y-84074000D02*
X152400000Y-88646000D01*
X144780000Y-84074000D02*
X144780000Y-88646000D01*
X144780000Y-84074000D02*
X152400000Y-84074000D01*
X152400000Y-88646000D02*
X144780000Y-88646000D01*
X157528094Y-97242381D02*
X158099523Y-97242381D01*
X157813808Y-98242381D02*
X157813808Y-97242381D01*
X158575713Y-98242381D02*
X158480475Y-98194762D01*
X158432856Y-98147143D01*
X158385237Y-98051905D01*
X158385237Y-97766190D01*
X158432856Y-97670952D01*
X158480475Y-97623333D01*
X158575713Y-97575714D01*
X158718571Y-97575714D01*
X158813809Y-97623333D01*
X158861428Y-97670952D01*
X158909047Y-97766190D01*
X158909047Y-98051905D01*
X158861428Y-98147143D01*
X158813809Y-98194762D01*
X158718571Y-98242381D01*
X158575713Y-98242381D01*
X160432857Y-97718571D02*
X160575714Y-97766190D01*
X160623333Y-97813810D01*
X160670952Y-97909048D01*
X160670952Y-98051905D01*
X160623333Y-98147143D01*
X160575714Y-98194762D01*
X160480476Y-98242381D01*
X160099523Y-98242381D01*
X160099523Y-97242381D01*
X160432857Y-97242381D01*
X160528095Y-97290000D01*
X160575714Y-97337619D01*
X160623333Y-97432857D01*
X160623333Y-97528095D01*
X160575714Y-97623333D01*
X160528095Y-97670952D01*
X160432857Y-97718571D01*
X160099523Y-97718571D01*
X161528095Y-98242381D02*
X161528095Y-97718571D01*
X161480476Y-97623333D01*
X161385238Y-97575714D01*
X161194761Y-97575714D01*
X161099523Y-97623333D01*
X161528095Y-98194762D02*
X161432857Y-98242381D01*
X161194761Y-98242381D01*
X161099523Y-98194762D01*
X161051904Y-98099524D01*
X161051904Y-98004286D01*
X161099523Y-97909048D01*
X161194761Y-97861429D01*
X161432857Y-97861429D01*
X161528095Y-97813810D01*
X161861428Y-97575714D02*
X162242380Y-97575714D01*
X162004285Y-97242381D02*
X162004285Y-98099524D01*
X162051904Y-98194762D01*
X162147142Y-98242381D01*
X162242380Y-98242381D01*
X162432857Y-97575714D02*
X162813809Y-97575714D01*
X162575714Y-97242381D02*
X162575714Y-98099524D01*
X162623333Y-98194762D01*
X162718571Y-98242381D01*
X162813809Y-98242381D01*
X163528096Y-98194762D02*
X163432858Y-98242381D01*
X163242381Y-98242381D01*
X163147143Y-98194762D01*
X163099524Y-98099524D01*
X163099524Y-97718571D01*
X163147143Y-97623333D01*
X163242381Y-97575714D01*
X163432858Y-97575714D01*
X163528096Y-97623333D01*
X163575715Y-97718571D01*
X163575715Y-97813810D01*
X163099524Y-97909048D01*
X164004286Y-98242381D02*
X164004286Y-97575714D01*
X164004286Y-97766190D02*
X164051905Y-97670952D01*
X164099524Y-97623333D01*
X164194762Y-97575714D01*
X164290001Y-97575714D01*
X164528096Y-97575714D02*
X164766191Y-98242381D01*
X165004287Y-97575714D02*
X164766191Y-98242381D01*
X164670953Y-98480476D01*
X164623334Y-98528095D01*
X164528096Y-98575714D01*
X159893333Y-93114762D02*
X160036190Y-93162381D01*
X160274286Y-93162381D01*
X160369524Y-93114762D01*
X160417143Y-93067143D01*
X160464762Y-92971905D01*
X160464762Y-92876667D01*
X160417143Y-92781429D01*
X160369524Y-92733810D01*
X160274286Y-92686190D01*
X160083809Y-92638571D01*
X159988571Y-92590952D01*
X159940952Y-92543333D01*
X159893333Y-92448095D01*
X159893333Y-92352857D01*
X159940952Y-92257619D01*
X159988571Y-92210000D01*
X160083809Y-92162381D01*
X160321905Y-92162381D01*
X160464762Y-92210000D01*
X161274286Y-93114762D02*
X161179048Y-93162381D01*
X160988571Y-93162381D01*
X160893333Y-93114762D01*
X160845714Y-93019524D01*
X160845714Y-92638571D01*
X160893333Y-92543333D01*
X160988571Y-92495714D01*
X161179048Y-92495714D01*
X161274286Y-92543333D01*
X161321905Y-92638571D01*
X161321905Y-92733810D01*
X160845714Y-92829048D01*
X161750476Y-93162381D02*
X161750476Y-92495714D01*
X161750476Y-92686190D02*
X161798095Y-92590952D01*
X161845714Y-92543333D01*
X161940952Y-92495714D01*
X162036191Y-92495714D01*
X162274286Y-92495714D02*
X162512381Y-93162381D01*
X162750477Y-92495714D01*
X163274286Y-93162381D02*
X163179048Y-93114762D01*
X163131429Y-93067143D01*
X163083810Y-92971905D01*
X163083810Y-92686190D01*
X163131429Y-92590952D01*
X163179048Y-92543333D01*
X163274286Y-92495714D01*
X163417144Y-92495714D01*
X163512382Y-92543333D01*
X163560001Y-92590952D01*
X163607620Y-92686190D01*
X163607620Y-92971905D01*
X163560001Y-93067143D01*
X163512382Y-93114762D01*
X163417144Y-93162381D01*
X163274286Y-93162381D01*
X164750477Y-92876667D02*
X165226668Y-92876667D01*
X164655239Y-93162381D02*
X164988572Y-92162381D01*
X165321906Y-93162381D01*
X167441904Y-93114762D02*
X167584761Y-93162381D01*
X167822857Y-93162381D01*
X167918095Y-93114762D01*
X167965714Y-93067143D01*
X168013333Y-92971905D01*
X168013333Y-92876667D01*
X167965714Y-92781429D01*
X167918095Y-92733810D01*
X167822857Y-92686190D01*
X167632380Y-92638571D01*
X167537142Y-92590952D01*
X167489523Y-92543333D01*
X167441904Y-92448095D01*
X167441904Y-92352857D01*
X167489523Y-92257619D01*
X167537142Y-92210000D01*
X167632380Y-92162381D01*
X167870476Y-92162381D01*
X168013333Y-92210000D01*
X168822857Y-93114762D02*
X168727619Y-93162381D01*
X168537142Y-93162381D01*
X168441904Y-93114762D01*
X168394285Y-93019524D01*
X168394285Y-92638571D01*
X168441904Y-92543333D01*
X168537142Y-92495714D01*
X168727619Y-92495714D01*
X168822857Y-92543333D01*
X168870476Y-92638571D01*
X168870476Y-92733810D01*
X168394285Y-92829048D01*
X169299047Y-93162381D02*
X169299047Y-92495714D01*
X169299047Y-92686190D02*
X169346666Y-92590952D01*
X169394285Y-92543333D01*
X169489523Y-92495714D01*
X169584762Y-92495714D01*
X169822857Y-92495714D02*
X170060952Y-93162381D01*
X170299048Y-92495714D01*
X170822857Y-93162381D02*
X170727619Y-93114762D01*
X170680000Y-93067143D01*
X170632381Y-92971905D01*
X170632381Y-92686190D01*
X170680000Y-92590952D01*
X170727619Y-92543333D01*
X170822857Y-92495714D01*
X170965715Y-92495714D01*
X171060953Y-92543333D01*
X171108572Y-92590952D01*
X171156191Y-92686190D01*
X171156191Y-92971905D01*
X171108572Y-93067143D01*
X171060953Y-93114762D01*
X170965715Y-93162381D01*
X170822857Y-93162381D01*
X172680001Y-92638571D02*
X172822858Y-92686190D01*
X172870477Y-92733810D01*
X172918096Y-92829048D01*
X172918096Y-92971905D01*
X172870477Y-93067143D01*
X172822858Y-93114762D01*
X172727620Y-93162381D01*
X172346667Y-93162381D01*
X172346667Y-92162381D01*
X172680001Y-92162381D01*
X172775239Y-92210000D01*
X172822858Y-92257619D01*
X172870477Y-92352857D01*
X172870477Y-92448095D01*
X172822858Y-92543333D01*
X172775239Y-92590952D01*
X172680001Y-92638571D01*
X172346667Y-92638571D01*
X175061904Y-93114762D02*
X175204761Y-93162381D01*
X175442857Y-93162381D01*
X175538095Y-93114762D01*
X175585714Y-93067143D01*
X175633333Y-92971905D01*
X175633333Y-92876667D01*
X175585714Y-92781429D01*
X175538095Y-92733810D01*
X175442857Y-92686190D01*
X175252380Y-92638571D01*
X175157142Y-92590952D01*
X175109523Y-92543333D01*
X175061904Y-92448095D01*
X175061904Y-92352857D01*
X175109523Y-92257619D01*
X175157142Y-92210000D01*
X175252380Y-92162381D01*
X175490476Y-92162381D01*
X175633333Y-92210000D01*
X176442857Y-93114762D02*
X176347619Y-93162381D01*
X176157142Y-93162381D01*
X176061904Y-93114762D01*
X176014285Y-93019524D01*
X176014285Y-92638571D01*
X176061904Y-92543333D01*
X176157142Y-92495714D01*
X176347619Y-92495714D01*
X176442857Y-92543333D01*
X176490476Y-92638571D01*
X176490476Y-92733810D01*
X176014285Y-92829048D01*
X176919047Y-93162381D02*
X176919047Y-92495714D01*
X176919047Y-92686190D02*
X176966666Y-92590952D01*
X177014285Y-92543333D01*
X177109523Y-92495714D01*
X177204762Y-92495714D01*
X177442857Y-92495714D02*
X177680952Y-93162381D01*
X177919048Y-92495714D01*
X178442857Y-93162381D02*
X178347619Y-93114762D01*
X178300000Y-93067143D01*
X178252381Y-92971905D01*
X178252381Y-92686190D01*
X178300000Y-92590952D01*
X178347619Y-92543333D01*
X178442857Y-92495714D01*
X178585715Y-92495714D01*
X178680953Y-92543333D01*
X178728572Y-92590952D01*
X178776191Y-92686190D01*
X178776191Y-92971905D01*
X178728572Y-93067143D01*
X178680953Y-93114762D01*
X178585715Y-93162381D01*
X178442857Y-93162381D01*
X180538096Y-93067143D02*
X180490477Y-93114762D01*
X180347620Y-93162381D01*
X180252382Y-93162381D01*
X180109524Y-93114762D01*
X180014286Y-93019524D01*
X179966667Y-92924286D01*
X179919048Y-92733810D01*
X179919048Y-92590952D01*
X179966667Y-92400476D01*
X180014286Y-92305238D01*
X180109524Y-92210000D01*
X180252382Y-92162381D01*
X180347620Y-92162381D01*
X180490477Y-92210000D01*
X180538096Y-92257619D01*
M02*
