M48
;DRILL file {KiCad 4.0.2-stable} date 5/23/2016 10:54:27 AM
;FORMAT={-:-/ absolute / metric / decimal}
FMAT,2
METRIC,TZ
T1C0.813
T2C1.016
%
G90
G05
M71
T1
X146.05Y-85.09
X146.05Y-87.63
X148.59Y-85.09
X148.59Y-87.63
X151.13Y-85.09
X151.13Y-87.63
T2
X139.7Y-91.44
X139.7Y-93.98
X139.7Y-96.52
X152.4Y-96.52
X154.94Y-96.52
X162.56Y-85.09
X162.56Y-87.63
X162.56Y-90.17
X170.18Y-85.09
X170.18Y-87.63
X170.18Y-90.17
X177.8Y-85.09
X177.8Y-87.63
X177.8Y-90.17
X187.96Y-85.09
X187.96Y-87.63
X187.96Y-90.17
T0
M30
