G04 #@! TF.FileFunction,Copper,L1,Top,Signal*
%FSLAX46Y46*%
G04 Gerber Fmt 4.6, Leading zero omitted, Abs format (unit mm)*
G04 Created by KiCad (PCBNEW 4.0.2-stable) date 4/25/2016 6:36:29 PM*
%MOMM*%
G01*
G04 APERTURE LIST*
%ADD10C,0.100000*%
%ADD11R,2.032000X2.032000*%
%ADD12O,2.032000X2.032000*%
%ADD13R,2.032000X1.727200*%
%ADD14O,2.032000X1.727200*%
%ADD15R,1.524000X1.524000*%
%ADD16C,1.524000*%
%ADD17C,0.254000*%
G04 APERTURE END LIST*
D10*
D11*
X154940000Y-96520000D03*
D12*
X152400000Y-96520000D03*
D13*
X162560000Y-85090000D03*
D14*
X162560000Y-87630000D03*
X162560000Y-90170000D03*
D13*
X190500000Y-90170000D03*
D14*
X190500000Y-87630000D03*
X190500000Y-85090000D03*
D13*
X170180000Y-85090000D03*
D14*
X170180000Y-87630000D03*
X170180000Y-90170000D03*
D13*
X177800000Y-85090000D03*
D14*
X177800000Y-87630000D03*
X177800000Y-90170000D03*
D13*
X139700000Y-96520000D03*
D14*
X139700000Y-93980000D03*
X139700000Y-91440000D03*
D15*
X146050000Y-87630000D03*
D16*
X148590000Y-87630000D03*
X151130000Y-87630000D03*
X151130000Y-85090000D03*
X148590000Y-85090000D03*
X146050000Y-85090000D03*
D17*
X154940000Y-96520000D02*
X154940000Y-92710000D01*
X148590000Y-90170000D02*
X148590000Y-87630000D01*
X149860000Y-91440000D02*
X148590000Y-90170000D01*
X153670000Y-91440000D02*
X149860000Y-91440000D01*
X154940000Y-92710000D02*
X153670000Y-91440000D01*
X148590000Y-85090000D02*
X148590000Y-87630000D01*
X185420000Y-90170000D02*
X190500000Y-90170000D01*
X184150000Y-91440000D02*
X185420000Y-90170000D01*
X181610000Y-93980000D02*
X184150000Y-91440000D01*
X168910000Y-93980000D02*
X181610000Y-93980000D01*
X166370000Y-91440000D02*
X168910000Y-93980000D01*
X166370000Y-86360000D02*
X166370000Y-91440000D01*
X165100000Y-85090000D02*
X166370000Y-86360000D01*
X162560000Y-85090000D02*
X165100000Y-85090000D01*
X170180000Y-85090000D02*
X172720000Y-85090000D01*
X184150000Y-87630000D02*
X190500000Y-87630000D01*
X181610000Y-90170000D02*
X184150000Y-87630000D01*
X181610000Y-91440000D02*
X181610000Y-90170000D01*
X180340000Y-92710000D02*
X181610000Y-91440000D01*
X175260000Y-92710000D02*
X180340000Y-92710000D01*
X173990000Y-91440000D02*
X175260000Y-92710000D01*
X173990000Y-86360000D02*
X173990000Y-91440000D01*
X172720000Y-85090000D02*
X173990000Y-86360000D01*
X177800000Y-85090000D02*
X190500000Y-85090000D01*
X151130000Y-85090000D02*
X151130000Y-87630000D01*
M02*
