  0
SECTION
  2
HEADER
  9
$ACADVER
  1
AC1014
  9
$HANDSEED
  5
FFFF
  9
$MEASUREMENT
 70
     1
  0
ENDSEC
  0
SECTION
  2
TABLES
  0
TABLE
  2
VPORT
  5
8
330
0
100
AcDbSymbolTable
 70
     4
  0
VPORT
  5
2E
330
8
100
AcDbSymbolTableRecord
100
AcDbViewportTableRecord
  2
*ACTIVE
 70
     0
 10
0.0
 20
0.0
 11
1.0
 21
1.0
 12
210.0
 22
148.5
 13
0.0
 23
0.0
 14
10.0
 24
10.0
 15
10.0
 25
10.0
 16
0.0
 26
0.0
 36
1.0
 17
0.0
 27
0.0
 37
0.0
 40
341.0
 41
1.24
 42
50.0
 43
0.0
 44
0.0
 50
0.0
 51
0.0
 71
     0
 72
   100
 73
     1
 74
     3
 75
     0
 76
     0
 77
     0
 78
     0
  0
ENDTAB
  0
TABLE
  2
LTYPE
  5
5
330
0
100
AcDbSymbolTable
 70
     1
  0
LTYPE
  5
14
330
5
100
AcDbSymbolTableRecord
100
AcDbLinetypeTableRecord
  2
BYBLOCK
 70
     0
  3

 72
    65
 73
     0
 40
0.0
  0
LTYPE
  5
15
330
5
100
AcDbSymbolTableRecord
100
AcDbLinetypeTableRecord
  2
BYLAYER
 70
     0
  3

 72
    65
 73
     0
 40
0.0
  0
LTYPE
  5
16
330
5
100
AcDbSymbolTableRecord
100
AcDbLinetypeTableRecord
  2
CONTINUOUS
 70
     0
  3
Solid line
 72
    65
 73
     0
 40
0.0
  0
ENDTAB
  0
TABLE
  2
LAYER
  5
2
100
AcDbSymbolTable
 70
2
  0
LAYER
  5
50
100
AcDbSymbolTableRecord
100
AcDbLayerTableRecord
  2
0
 70
0
  6
CONTINUOUS
  0
LAYER
  5
51
100
AcDbSymbolTableRecord
100
AcDbLayerTableRecord
  2
servo_mount
 70
0
  6
CONTINUOUS
  0
ENDTAB
  0
TABLE
  2
STYLE
  5
3
330
0
100
AcDbSymbolTable
 70
     1
  0
STYLE
  5
11
330
3
100
AcDbSymbolTableRecord
100
AcDbTextStyleTableRecord
  2
STANDARD
 70
     0
 40
0.0
 41
1.0
 50
0.0
 71
     0
 42
2.5
  3
txt
  4

  0
ENDTAB
  0
TABLE
  2
VIEW
  5
6
330
0
100
AcDbSymbolTable
 70
     0
  0
ENDTAB
  0
TABLE
  2
UCS
  5
7
330
0
100
AcDbSymbolTable
 70
     0
  0
ENDTAB
  0
TABLE
  2
APPID
  5
9
330
0
100
AcDbSymbolTable
 70
     2
  0
APPID
  5
12
330
9
100
AcDbSymbolTableRecord
100
AcDbRegAppTableRecord
  2
ACAD
 70
     0
  0
ENDTAB
  0
TABLE
  2
DIMSTYLE
  5
A
330
0
100
AcDbSymbolTable
 70
     1
  0
DIMSTYLE
105
27
330
A
100
AcDbSymbolTableRecord
100
AcDbDimStyleTableRecord
  2
ISO-25
 70
     0
  3

  4

  5

  6

  7

 40
1.0
 41
2.5
 42
0.625
 43
3.75
 44
1.25
 45
0.0
 46
0.0
 47
0.0
 48
0.0
140
2.5
141
2.5
142
0.0
143
0.03937007874016
144
1.0
145
0.0
146
1.0
147
0.625
 71
     0
 72
     0
 73
     0
 74
     0
 75
     0
 76
     0
 77
     1
 78
     8
170
     0
171
     3
172
     1
173
     0
174
     0
175
     0
176
     0
177
     0
178
     0
270
     2
271
     2
272
     2
273
     2
274
     3
340
11
275
     0
280
     0
281
     0
282
     0
283
     0
284
     8
285
     0
286
     0
287
     3
288
     0
  0
ENDTAB
  0
TABLE
  2
BLOCK_RECORD
  5
1
330
0
100
AcDbSymbolTable
 70
     1
  0
BLOCK_RECORD
  5
1F
330
1
100
AcDbSymbolTableRecord
100
AcDbBlockTableRecord
  2
*MODEL_SPACE
  0
BLOCK_RECORD
  5
1B
330
1
100
AcDbSymbolTableRecord
100
AcDbBlockTableRecord
  2
*PAPER_SPACE
  0
ENDTAB
  0
ENDSEC
  0
SECTION
  2
BLOCKS
  0
BLOCK
  5
20
330
1F
100
AcDbEntity
  8
0
100
AcDbBlockBegin
  2
*MODEL_SPACE
 70
     0
 10
0.0
 20
0.0
 30
0.0
  3
*MODEL_SPACE
  1

  0
ENDBLK
  5
21
330
1F
100
AcDbEntity
  8
0
100
AcDbBlockEnd
  0
BLOCK
  5
1C
330
1B
100
AcDbEntity
 67
     1
  8
0
100
AcDbBlockBegin
  2
*PAPER_SPACE
  1

  0
ENDBLK
  5
1D
330
1B
100
AcDbEntity
 67
     1
  8
0
100
AcDbBlockEnd
  0
ENDSEC
  0
SECTION
  2
ENTITIES
  0
SPLINE
  5
100
100
AcDbEntity
  8
servo_mount
 62
7
100
AcDbSpline
 70
8
 71
3
 72
8
 73
4
 74
0
 40
0
 40
0
 40
0
 40
0
 40
1
 40
1
 40
1
 40
1
 10
62.933129
 20
111.379064
 30
0.0
 10
63.282359
 20
111.177362
 30
0.0
 10
63.728980
 20
111.296945
 30
0.0
 10
63.930698
 20
111.646166
 30
0.0
  0
SPLINE
  5
101
100
AcDbEntity
  8
servo_mount
 62
7
100
AcDbSpline
 70
8
 71
3
 72
8
 73
4
 74
0
 40
0
 40
0
 40
0
 40
0
 40
1
 40
1
 40
1
 40
1
 10
63.930698
 20
111.646166
 30
0.0
 10
64.132416
 20
111.995388
 30
0.0
 10
64.012855
 20
112.442013
 30
0.0
 10
63.663644
 20
112.643749
 30
0.0
  0
SPLINE
  5
102
100
AcDbEntity
  8
servo_mount
 62
7
100
AcDbSpline
 70
8
 71
3
 72
8
 73
4
 74
0
 40
0
 40
0
 40
0
 40
0
 40
1
 40
1
 40
1
 40
1
 10
58.456521
 20
115.691817
 30
0.0
 10
58.107274
 20
115.893487
 30
0.0
 10
57.660666
 20
115.773865
 30
0.0
 10
57.458981
 20
115.424627
 30
0.0
  0
SPLINE
  5
103
100
AcDbEntity
  8
servo_mount
 62
7
100
AcDbSpline
 70
8
 71
3
 72
8
 73
4
 74
0
 40
0
 40
0
 40
0
 40
0
 40
1
 40
1
 40
1
 40
1
 10
57.458981
 20
115.424627
 30
0.0
 10
57.257295
 20
115.075389
 30
0.0
 10
57.376895
 20
114.628778
 30
0.0
 10
57.726122
 20
114.427074
 30
0.0
  0
LWPOLYLINE
  5
104
100
AcDbEntity
  8
servo_mount
 62
7
100
AcDbPolyline
 90
2
 70
0
 10
62.949099
 20
111.408178
 30
0.0
 10
57.742106
 20
114.392674
 30
0.0
  0
SPLINE
  5
105
100
AcDbEntity
  8
servo_mount
 62
7
100
AcDbSpline
 70
8
 71
3
 72
8
 73
4
 74
0
 40
0
 40
0
 40
0
 40
0
 40
1
 40
1
 40
1
 40
1
 10
101.033253
 20
124.137353
 30
0.0
 10
100.683986
 20
123.935720
 30
0.0
 10
100.564294
 20
123.489131
 30
0.0
 10
100.765912
 20
123.139855
 30
0.0
  0
SPLINE
  5
106
100
AcDbEntity
  8
servo_mount
 62
7
100
AcDbSpline
 70
8
 71
3
 72
8
 73
4
 74
0
 40
0
 40
0
 40
0
 40
0
 40
1
 40
1
 40
1
 40
1
 10
100.765912
 20
123.139855
 30
0.0
 10
100.967531
 20
122.790579
 30
0.0
 10
101.414111
 20
122.670866
 30
0.0
 10
101.763398
 20
122.872467
 30
0.0
  0
LWPOLYLINE
  5
107
100
AcDbEntity
  8
servo_mount
 62
7
100
AcDbPolyline
 90
2
 70
0
 10
58.504099
 20
115.662674
 30
0.0
 10
63.711102
 20
112.678178
 30
0.0
  0
SPLINE
  5
108
100
AcDbEntity
  8
servo_mount
 62
7
100
AcDbSpline
 70
8
 71
3
 72
8
 73
4
 74
0
 40
0
 40
0
 40
0
 40
0
 40
1
 40
1
 40
1
 40
1
 10
106.970404
 20
125.856966
 30
0.0
 10
107.319691
 20
126.058567
 30
0.0
 10
107.439426
 20
126.505146
 30
0.0
 10
107.237839
 20
126.854442
 30
0.0
  0
SPLINE
  5
109
100
AcDbEntity
  8
servo_mount
 62
7
100
AcDbSpline
 70
8
 71
3
 72
8
 73
4
 74
0
 40
0
 40
0
 40
0
 40
0
 40
1
 40
1
 40
1
 40
1
 10
107.237839
 20
126.854442
 30
0.0
 10
107.036253
 20
127.203738
 30
0.0
 10
106.589682
 20
127.323493
 30
0.0
 10
106.240376
 20
127.121925
 30
0.0
  0
LWPOLYLINE
  5
10a
100
AcDbEntity
  8
servo_mount
 62
7
100
AcDbPolyline
 90
2
 70
0
 10
101.049109
 20
124.171674
 30
0.0
 10
106.256092
 20
127.156171
 30
0.0
  0
SPLINE
  5
10b
100
AcDbEntity
  8
servo_mount
 62
7
100
AcDbSpline
 70
8
 71
3
 72
8
 73
4
 74
0
 40
0
 40
0
 40
0
 40
0
 40
1
 40
1
 40
1
 40
1
 10
93.048102
 20
84.769924
 30
0.0
 10
93.048102
 20
85.173213
 30
0.0
 10
92.721183
 20
85.500153
 30
0.0
 10
92.317891
 20
85.500174
 30
0.0
  0
SPLINE
  5
10c
100
AcDbEntity
  8
servo_mount
 62
7
100
AcDbSpline
 70
8
 71
3
 72
8
 73
4
 74
0
 40
0
 40
0
 40
0
 40
0
 40
1
 40
1
 40
1
 40
1
 10
92.317891
 20
85.500174
 30
0.0
 10
91.914588
 20
85.500192
 30
0.0
 10
91.587641
 20
85.173283
 30
0.0
 10
91.587606
 20
84.769991
 30
0.0
  0
LWPOLYLINE
  5
10d
100
AcDbEntity
  8
servo_mount
 62
7
100
AcDbPolyline
 90
2
 70
0
 10
106.954606
 20
125.886178
 30
0.0
 10
101.811102
 20
122.838174
 30
0.0
  0
SPLINE
  5
10e
100
AcDbEntity
  8
servo_mount
 62
7
100
AcDbSpline
 70
8
 71
3
 72
8
 73
4
 74
0
 40
0
 40
0
 40
0
 40
0
 40
1
 40
1
 40
1
 40
1
 10
91.587609
 20
78.801001
 30
0.0
 10
91.587569
 20
78.397709
 30
0.0
 10
91.914459
 20
78.070736
 30
0.0
 10
92.317751
 20
78.070678
 30
0.0
  0
SPLINE
  5
10f
100
AcDbEntity
  8
servo_mount
 62
7
100
AcDbSpline
 70
8
 71
3
 72
8
 73
4
 74
0
 40
0
 40
0
 40
0
 40
0
 40
1
 40
1
 40
1
 40
1
 10
92.317751
 20
78.070678
 30
0.0
 10
92.721043
 20
78.070620
 30
0.0
 10
93.048030
 20
78.397492
 30
0.0
 10
93.048109
 20
78.800784
 30
0.0
  0
LWPOLYLINE
  5
110
100
AcDbEntity
  8
servo_mount
 62
7
100
AcDbPolyline
 90
2
 70
0
 10
93.048102
 20
84.801671
 30
0.0
 10
93.048102
 20
78.769174
 30
0.0
  0
SPLINE
  5
111
100
AcDbEntity
  8
servo_mount
 62
7
100
AcDbSpline
 70
8
 71
3
 72
8
 73
4
 74
0
 40
0
 40
0
 40
0
 40
0
 40
1
 40
1
 40
1
 40
1
 10
135.021606
 20
84.769924
 30
0.0
 10
135.021606
 20
85.173213
 30
0.0
 10
134.694687
 20
85.500153
 30
0.0
 10
134.291395
 20
85.500174
 30
0.0
  0
SPLINE
  5
112
100
AcDbEntity
  8
servo_mount
 62
7
100
AcDbSpline
 70
8
 71
3
 72
8
 73
4
 74
0
 40
0
 40
0
 40
0
 40
0
 40
1
 40
1
 40
1
 40
1
 10
134.291395
 20
85.500174
 30
0.0
 10
133.888106
 20
85.500192
 30
0.0
 10
133.561145
 20
85.173283
 30
0.0
 10
133.561102
 20
84.769991
 30
0.0
  0
LWPOLYLINE
  5
113
100
AcDbEntity
  8
servo_mount
 62
7
100
AcDbPolyline
 90
2
 70
0
 10
91.524099
 20
78.769174
 30
0.0
 10
91.524099
 20
84.801671
 30
0.0
  0
SPLINE
  5
114
100
AcDbEntity
  8
servo_mount
 62
7
100
AcDbSpline
 70
8
 71
3
 72
8
 73
4
 74
0
 40
0
 40
0
 40
0
 40
0
 40
1
 40
1
 40
1
 40
1
 10
133.561102
 20
78.801001
 30
0.0
 10
133.561062
 20
78.397709
 30
0.0
 10
133.887952
 20
78.070736
 30
0.0
 10
134.291244
 20
78.070678
 30
0.0
  0
SPLINE
  5
115
100
AcDbEntity
  8
servo_mount
 62
7
100
AcDbSpline
 70
8
 71
3
 72
8
 73
4
 74
0
 40
0
 40
0
 40
0
 40
0
 40
1
 40
1
 40
1
 40
1
 10
134.291244
 20
78.070678
 30
0.0
 10
134.694536
 20
78.070620
 30
0.0
 10
135.021523
 20
78.397492
 30
0.0
 10
135.021602
 20
78.800784
 30
0.0
  0
LWPOLYLINE
  5
116
100
AcDbEntity
  8
servo_mount
 62
7
100
AcDbPolyline
 90
2
 70
0
 10
135.021606
 20
84.801671
 30
0.0
 10
135.021606
 20
78.769174
 30
0.0
  0
SPLINE
  5
117
100
AcDbEntity
  8
servo_mount
 62
7
100
AcDbSpline
 70
8
 71
3
 72
8
 73
4
 74
0
 40
0
 40
0
 40
0
 40
0
 40
1
 40
1
 40
1
 40
1
 10
85.951897
 20
162.242458
 30
0.0
 10
86.301184
 20
162.444060
 30
0.0
 10
86.420918
 20
162.890639
 30
0.0
 10
86.219332
 20
163.239935
 30
0.0
  0
SPLINE
  5
118
100
AcDbEntity
  8
servo_mount
 62
7
100
AcDbSpline
 70
8
 71
3
 72
8
 73
4
 74
0
 40
0
 40
0
 40
0
 40
0
 40
1
 40
1
 40
1
 40
1
 10
86.219332
 20
163.239935
 30
0.0
 10
86.017746
 20
163.589231
 30
0.0
 10
85.571175
 20
163.708986
 30
0.0
 10
85.221869
 20
163.507418
 30
0.0
  0
LWPOLYLINE
  5
119
100
AcDbEntity
  8
servo_mount
 62
7
100
AcDbPolyline
 90
2
 70
0
 10
133.561102
 20
78.769174
 30
0.0
 10
133.561102
 20
84.801671
 30
0.0
  0
SPLINE
  5
11a
100
AcDbEntity
  8
servo_mount
 62
7
100
AcDbSpline
 70
8
 71
3
 72
8
 73
4
 74
0
 40
0
 40
0
 40
0
 40
0
 40
1
 40
1
 40
1
 40
1
 10
80.078246
 20
160.522850
 30
0.0
 10
79.728979
 20
160.321216
 30
0.0
 10
79.609287
 20
159.874628
 30
0.0
 10
79.810905
 20
159.525352
 30
0.0
  0
SPLINE
  5
11b
100
AcDbEntity
  8
servo_mount
 62
7
100
AcDbSpline
 70
8
 71
3
 72
8
 73
4
 74
0
 40
0
 40
0
 40
0
 40
0
 40
1
 40
1
 40
1
 40
1
 10
79.810905
 20
159.525352
 30
0.0
 10
80.012524
 20
159.176076
 30
0.0
 10
80.459104
 20
159.056363
 30
0.0
 10
80.808391
 20
159.257963
 30
0.0
  0
LWPOLYLINE
  5
11c
100
AcDbEntity
  8
servo_mount
 62
7
100
AcDbPolyline
 90
2
 70
0
 10
85.999599
 20
162.208178
 30
0.0
 10
80.792606
 20
159.223678
 30
0.0
  0
SPLINE
  5
11d
100
AcDbEntity
  8
servo_mount
 62
7
100
AcDbSpline
 70
8
 71
3
 72
8
 73
4
 74
0
 40
0
 40
0
 40
0
 40
0
 40
1
 40
1
 40
1
 40
1
 10
37.501514
 20
79.306313
 30
0.0
 10
37.152267
 20
79.507984
 30
0.0
 10
36.705659
 20
79.388362
 30
0.0
 10
36.503974
 20
79.039124
 30
0.0
  0
SPLINE
  5
11e
100
AcDbEntity
  8
servo_mount
 62
7
100
AcDbSpline
 70
8
 71
3
 72
8
 73
4
 74
0
 40
0
 40
0
 40
0
 40
0
 40
1
 40
1
 40
1
 40
1
 10
36.503974
 20
79.039124
 30
0.0
 10
36.302288
 20
78.689886
 30
0.0
 10
36.421888
 20
78.243274
 30
0.0
 10
36.771115
 20
78.041570
 30
0.0
  0
LWPOLYLINE
  5
11f
100
AcDbEntity
  8
servo_mount
 62
7
100
AcDbPolyline
 90
2
 70
0
 10
80.030602
 20
160.557178
 30
0.0
 10
85.237606
 20
163.541674
 30
0.0
  0
SPLINE
  5
120
100
AcDbEntity
  8
servo_mount
 62
7
100
AcDbSpline
 70
8
 71
3
 72
8
 73
4
 74
0
 40
0
 40
0
 40
0
 40
0
 40
1
 40
1
 40
1
 40
1
 10
41.914683
 20
75.057039
 30
0.0
 10
42.263930
 20
74.855368
 30
0.0
 10
42.710538
 20
74.974990
 30
0.0
 10
42.912224
 20
75.324228
 30
0.0
  0
SPLINE
  5
121
100
AcDbEntity
  8
servo_mount
 62
7
100
AcDbSpline
 70
8
 71
3
 72
8
 73
4
 74
0
 40
0
 40
0
 40
0
 40
0
 40
1
 40
1
 40
1
 40
1
 10
42.912224
 20
75.324228
 30
0.0
 10
43.113909
 20
75.673466
 30
0.0
 10
42.994310
 20
76.120078
 30
0.0
 10
42.645082
 20
76.321782
 30
0.0
  0
LWPOLYLINE
  5
122
100
AcDbEntity
  8
servo_mount
 62
7
100
AcDbPolyline
 90
2
 70
0
 10
37.485602
 20
79.340674
 30
0.0
 10
42.692606
 20
76.292674
 30
0.0
  0
LWPOLYLINE
  5
123
100
AcDbEntity
  8
servo_mount
 62
7
100
AcDbPolyline
 90
2
 70
0
 10
41.930602
 20
75.022678
 30
0.0
 10
36.723602
 20
78.007174
 30
0.0
  0
SPLINE
  5
124
100
AcDbEntity
  8
servo_mount
 62
7
100
AcDbSpline
 70
8
 71
3
 72
8
 73
4
 74
0
 40
0
 40
0
 40
0
 40
0
 40
1
 40
1
 40
1
 40
1
 10
72.751015
 20
123.140131
 30
0.0
 10
73.583717
 20
121.697424
 30
0.0
 10
75.428279
 20
121.202876
 30
0.0
 10
76.871027
 20
122.035508
 30
0.0
  0
SPLINE
  5
125
100
AcDbEntity
  8
servo_mount
 62
7
100
AcDbSpline
 70
8
 71
3
 72
8
 73
4
 74
0
 40
0
 40
0
 40
0
 40
0
 40
1
 40
1
 40
1
 40
1
 10
76.871027
 20
122.035508
 30
0.0
 10
78.313778
 20
122.868142
 30
0.0
 10
78.808413
 20
124.712680
 30
0.0
 10
77.975848
 20
126.155467
 30
0.0
  0
LWPOLYLINE
  5
126
100
AcDbEntity
  8
servo_mount
 62
7
100
AcDbPolyline
 90
2
 70
0
 10
57.932599
 20
160.747671
 30
0.0
 10
77.935102
 20
126.140171
 30
0.0
  0
SPLINE
  5
127
100
AcDbEntity
  8
servo_mount
 62
7
100
AcDbSpline
 70
8
 71
3
 72
8
 73
4
 74
0
 40
0
 40
0
 40
0
 40
0
 40
1
 40
1
 40
1
 40
1
 10
77.975281
 20
87.388880
 30
0.0
 10
78.808400
 20
88.831355
 30
0.0
 10
78.314465
 20
90.676088
 30
0.0
 10
76.872032
 20
91.509277
 30
0.0
  0
SPLINE
  5
128
100
AcDbEntity
  8
servo_mount
 62
7
100
AcDbSpline
 70
8
 71
3
 72
8
 73
4
 74
0
 40
0
 40
0
 40
0
 40
0
 40
1
 40
1
 40
1
 40
1
 10
76.872032
 20
91.509277
 30
0.0
 10
75.429595
 20
92.342468
 30
0.0
 10
73.584838
 20
91.848620
 30
0.0
 10
72.751582
 20
90.406226
 30
0.0
  0
LWPOLYLINE
  5
129
100
AcDbEntity
  8
servo_mount
 62
7
100
AcDbPolyline
 90
6
 70
0
 10
72.791599
 20
123.155671
 30
0.0
 10
52.789102
 20
157.763174
 30
0.0
 10
25.039602
 20
141.761178
 30
0.0
 10
25.039602
 20
71.784174
 30
0.0
 10
52.789102
 20
55.782174
 30
0.0
 10
72.791599
 20
90.389674
 30
0.0
  0
SPLINE
  5
12a
100
AcDbEntity
  8
servo_mount
 62
7
100
AcDbSpline
 70
8
 71
3
 72
8
 73
4
 74
0
 40
0
 40
0
 40
0
 40
0
 40
1
 40
1
 40
1
 40
1
 10
106.288154
 20
109.820674
 30
0.0
 10
104.622383
 20
109.820841
 30
0.0
 10
103.271850
 20
108.470641
 30
0.0
 10
103.271602
 20
106.804870
 30
0.0
  0
SPLINE
  5
12b
100
AcDbEntity
  8
servo_mount
 62
7
100
AcDbSpline
 70
8
 71
3
 72
8
 73
4
 74
0
 40
0
 40
0
 40
0
 40
0
 40
1
 40
1
 40
1
 40
1
 10
103.271602
 20
106.804870
 30
0.0
 10
103.271355
 20
105.139096
 30
0.0
 10
104.621491
 20
103.788500
 30
0.0
 10
106.287261
 20
103.788174
 30
0.0
  0
LWPOLYLINE
  5
12c
100
AcDbEntity
  8
servo_mount
 62
7
100
AcDbPolyline
 90
6
 70
0
 10
77.935102
 20
87.405174
 30
0.0
 10
57.932599
 20
52.797674
 30
0.0
 10
85.682099
 20
36.795674
 30
0.0
 10
146.324599
 20
71.784174
 30
0.0
 10
146.324599
 20
103.788174
 30
0.0
 10
106.319609
 20
103.788174
 30
0.0
  0
SPLINE
  5
12d
100
AcDbEntity
  8
servo_mount
 62
7
100
AcDbSpline
 70
8
 71
3
 72
8
 73
4
 74
0
 40
0
 40
0
 40
0
 40
0
 40
1
 40
1
 40
1
 40
1
 10
87.079099
 20
106.804424
 30
0.0
 10
87.079099
 20
107.593475
 30
0.0
 10
86.439474
 20
108.233139
 30
0.0
 10
85.650416
 20
108.233178
 30
0.0
  0
SPLINE
  5
12e
100
AcDbEntity
  8
servo_mount
 62
7
100
AcDbSpline
 70
8
 71
3
 72
8
 73
4
 74
0
 40
0
 40
0
 40
0
 40
0
 40
1
 40
1
 40
1
 40
1
 10
85.650416
 20
108.233178
 30
0.0
 10
84.861372
 20
108.233213
 30
0.0
 10
84.221680
 20
107.593609
 30
0.0
 10
84.221606
 20
106.804558
 30
0.0
  0
SPLINE
  5
12f
100
AcDbEntity
  8
servo_mount
 62
7
100
AcDbSpline
 70
8
 71
3
 72
8
 73
4
 74
0
 40
0
 40
0
 40
0
 40
0
 40
1
 40
1
 40
1
 40
1
 10
84.221606
 20
106.804558
 30
0.0
 10
84.221532
 20
106.015511
 30
0.0
 10
84.861100
 20
105.375787
 30
0.0
 10
85.650148
 20
105.375674
 30
0.0
  0
SPLINE
  5
130
100
AcDbEntity
  8
servo_mount
 62
7
100
AcDbSpline
 70
8
 71
3
 72
8
 73
4
 74
0
 40
0
 40
0
 40
0
 40
0
 40
1
 40
1
 40
1
 40
1
 10
85.650148
 20
105.375674
 30
0.0
 10
86.439192
 20
105.375561
 30
0.0
 10
87.078947
 20
106.015102
 30
0.0
 10
87.079099
 20
106.804149
 30
0.0
  0
SPLINE
  5
131
100
AcDbEntity
  8
servo_mount
 62
7
100
AcDbSpline
 70
8
 71
3
 72
8
 73
4
 74
0
 40
0
 40
0
 40
0
 40
0
 40
1
 40
1
 40
1
 40
1
 10
130.386102
 20
131.759928
 30
0.0
 10
130.386102
 20
132.548972
 30
0.0
 10
129.746474
 20
133.188639
 30
0.0
 10
128.957419
 20
133.188674
 30
0.0
  0
SPLINE
  5
132
100
AcDbEntity
  8
servo_mount
 62
7
100
AcDbSpline
 70
8
 71
3
 72
8
 73
4
 74
0
 40
0
 40
0
 40
0
 40
0
 40
1
 40
1
 40
1
 40
1
 10
128.957419
 20
133.188674
 30
0.0
 10
128.168365
 20
133.188717
 30
0.0
 10
127.528673
 20
132.549113
 30
0.0
 10
127.528609
 20
131.760055
 30
0.0
  0
SPLINE
  5
133
100
AcDbEntity
  8
servo_mount
 62
7
100
AcDbSpline
 70
8
 71
3
 72
8
 73
4
 74
0
 40
0
 40
0
 40
0
 40
0
 40
1
 40
1
 40
1
 40
1
 10
127.528609
 20
131.760055
 30
0.0
 10
127.528525
 20
130.971011
 30
0.0
 10
128.168104
 20
130.331291
 30
0.0
 10
128.957141
 20
130.331171
 30
0.0
  0
SPLINE
  5
134
100
AcDbEntity
  8
servo_mount
 62
7
100
AcDbSpline
 70
8
 71
3
 72
8
 73
4
 74
0
 40
0
 40
0
 40
0
 40
0
 40
1
 40
1
 40
1
 40
1
 10
128.957141
 20
130.331171
 30
0.0
 10
129.746195
 20
130.331065
 30
0.0
 10
130.385951
 20
130.970602
 30
0.0
 10
130.386102
 20
131.759649
 30
0.0
  0
SPLINE
  5
135
100
AcDbEntity
  8
servo_mount
 62
7
100
AcDbSpline
 70
8
 71
3
 72
8
 73
4
 74
0
 40
0
 40
0
 40
0
 40
0
 40
1
 40
1
 40
1
 40
1
 10
87.079099
 20
56.766424
 30
0.0
 10
87.079099
 20
57.555475
 30
0.0
 10
86.439474
 20
58.195139
 30
0.0
 10
85.650416
 20
58.195174
 30
0.0
  0
SPLINE
  5
136
100
AcDbEntity
  8
servo_mount
 62
7
100
AcDbSpline
 70
8
 71
3
 72
8
 73
4
 74
0
 40
0
 40
0
 40
0
 40
0
 40
1
 40
1
 40
1
 40
1
 10
85.650416
 20
58.195174
 30
0.0
 10
84.861372
 20
58.195213
 30
0.0
 10
84.221680
 20
57.555613
 30
0.0
 10
84.221606
 20
56.766562
 30
0.0
  0
SPLINE
  5
137
100
AcDbEntity
  8
servo_mount
 62
7
100
AcDbSpline
 70
8
 71
3
 72
8
 73
4
 74
0
 40
0
 40
0
 40
0
 40
0
 40
1
 40
1
 40
1
 40
1
 10
84.221606
 20
56.766562
 30
0.0
 10
84.221532
 20
55.977511
 30
0.0
 10
84.861100
 20
55.337787
 30
0.0
 10
85.650148
 20
55.337674
 30
0.0
  0
SPLINE
  5
138
100
AcDbEntity
  8
servo_mount
 62
7
100
AcDbSpline
 70
8
 71
3
 72
8
 73
4
 74
0
 40
0
 40
0
 40
0
 40
0
 40
1
 40
1
 40
1
 40
1
 10
85.650148
 20
55.337674
 30
0.0
 10
86.439192
 20
55.337561
 30
0.0
 10
87.078947
 20
55.977102
 30
0.0
 10
87.079099
 20
56.766149
 30
0.0
  0
SPLINE
  5
139
100
AcDbEntity
  8
servo_mount
 62
7
100
AcDbSpline
 70
8
 71
3
 72
8
 73
4
 74
0
 40
0
 40
0
 40
0
 40
0
 40
1
 40
1
 40
1
 40
1
 10
43.772106
 20
131.759928
 30
0.0
 10
43.772106
 20
132.548972
 30
0.0
 10
43.132470
 20
133.188639
 30
0.0
 10
42.343423
 20
133.188674
 30
0.0
  0
SPLINE
  5
13a
100
AcDbEntity
  8
servo_mount
 62
7
100
AcDbSpline
 70
8
 71
3
 72
8
 73
4
 74
0
 40
0
 40
0
 40
0
 40
0
 40
1
 40
1
 40
1
 40
1
 10
42.343423
 20
133.188674
 30
0.0
 10
41.554368
 20
133.188717
 30
0.0
 10
40.914676
 20
132.549113
 30
0.0
 10
40.914602
 20
131.760055
 30
0.0
  0
SPLINE
  5
13b
100
AcDbEntity
  8
servo_mount
 62
7
100
AcDbSpline
 70
8
 71
3
 72
8
 73
4
 74
0
 40
0
 40
0
 40
0
 40
0
 40
1
 40
1
 40
1
 40
1
 10
40.914602
 20
131.760055
 30
0.0
 10
40.914528
 20
130.971011
 30
0.0
 10
41.554097
 20
130.331291
 30
0.0
 10
42.343144
 20
130.331171
 30
0.0
  0
SPLINE
  5
13c
100
AcDbEntity
  8
servo_mount
 62
7
100
AcDbSpline
 70
8
 71
3
 72
8
 73
4
 74
0
 40
0
 40
0
 40
0
 40
0
 40
1
 40
1
 40
1
 40
1
 10
42.343144
 20
130.331171
 30
0.0
 10
43.132199
 20
130.331065
 30
0.0
 10
43.771954
 20
130.970602
 30
0.0
 10
43.772106
 20
131.759649
 30
0.0
  0
SPLINE
  5
13d
100
AcDbEntity
  8
servo_mount
 62
7
100
AcDbSpline
 70
8
 71
3
 72
8
 73
4
 74
0
 40
0
 40
0
 40
0
 40
0
 40
1
 40
1
 40
1
 40
1
 10
207.423380
 20
87.205647
 30
0.0
 10
207.020088
 20
87.205687
 30
0.0
 10
206.693115
 20
86.878797
 30
0.0
 10
206.693057
 20
86.475505
 30
0.0
  0
SPLINE
  5
13e
100
AcDbEntity
  8
servo_mount
 62
7
100
AcDbSpline
 70
8
 71
3
 72
8
 73
4
 74
0
 40
0
 40
0
 40
0
 40
0
 40
1
 40
1
 40
1
 40
1
 10
206.693057
 20
86.475505
 30
0.0
 10
206.692999
 20
86.072213
 30
0.0
 10
207.019872
 20
85.745226
 30
0.0
 10
207.423164
 20
85.745147
 30
0.0
  0
LWPOLYLINE
  5
13f
100
AcDbEntity
  8
servo_mount
 62
7
100
AcDbPolyline
 90
5
 70
0
 10
106.319609
 20
109.757174
 30
0.0
 10
146.324599
 20
109.757174
 30
0.0
 10
146.324599
 20
141.761178
 30
0.0
 10
85.682099
 20
176.749678
 30
0.0
 10
57.932599
 20
160.747671
 30
0.0
  0
SPLINE
  5
140
100
AcDbEntity
  8
servo_mount
 62
7
100
AcDbSpline
 70
8
 71
3
 72
8
 73
4
 74
0
 40
0
 40
0
 40
0
 40
0
 40
1
 40
1
 40
1
 40
1
 10
210.407731
 20
85.745147
 30
0.0
 10
210.811023
 20
85.745106
 30
0.0
 10
211.137996
 20
86.071996
 30
0.0
 10
211.138054
 20
86.475288
 30
0.0
  0
SPLINE
  5
141
100
AcDbEntity
  8
servo_mount
 62
7
100
AcDbSpline
 70
8
 71
3
 72
8
 73
4
 74
0
 40
0
 40
0
 40
0
 40
0
 40
1
 40
1
 40
1
 40
1
 10
211.138054
 20
86.475288
 30
0.0
 10
211.138112
 20
86.878580
 30
0.0
 10
210.811239
 20
87.205567
 30
0.0
 10
210.407947
 20
87.205647
 30
0.0
  0
LWPOLYLINE
  5
142
100
AcDbEntity
  8
servo_mount
 62
7
100
AcDbPolyline
 90
2
 70
0
 10
207.391554
 20
87.205647
 30
0.0
 10
210.439554
 20
87.205647
 30
0.0
  0
SPLINE
  5
143
100
AcDbEntity
  8
servo_mount
 62
7
100
AcDbSpline
 70
8
 71
3
 72
8
 73
4
 74
0
 40
0
 40
0
 40
0
 40
0
 40
1
 40
1
 40
1
 40
1
 10
180.687164
 20
127.448666
 30
0.0
 10
180.888866
 20
127.797897
 30
0.0
 10
180.769284
 20
128.244518
 30
0.0
 10
180.420062
 20
128.446235
 30
0.0
  0
SPLINE
  5
144
100
AcDbEntity
  8
servo_mount
 62
7
100
AcDbSpline
 70
8
 71
3
 72
8
 73
4
 74
0
 40
0
 40
0
 40
0
 40
0
 40
1
 40
1
 40
1
 40
1
 10
180.420062
 20
128.446235
 30
0.0
 10
180.070840
 20
128.647953
 30
0.0
 10
179.624215
 20
128.528393
 30
0.0
 10
179.422479
 20
128.179181
 30
0.0
  0
LWPOLYLINE
  5
145
100
AcDbEntity
  8
servo_mount
 62
7
100
AcDbPolyline
 90
2
 70
0
 10
210.439554
 20
85.745147
 30
0.0
 10
207.391554
 20
85.745147
 30
0.0
  0
SPLINE
  5
146
100
AcDbEntity
  8
servo_mount
 62
7
100
AcDbSpline
 70
8
 71
3
 72
8
 73
4
 74
0
 40
0
 40
0
 40
0
 40
0
 40
1
 40
1
 40
1
 40
1
 10
177.898415
 20
125.575562
 30
0.0
 10
177.696744
 20
125.226315
 30
0.0
 10
177.816366
 20
124.779707
 30
0.0
 10
178.165604
 20
124.578022
 30
0.0
  0
SPLINE
  5
147
100
AcDbEntity
  8
servo_mount
 62
7
100
AcDbSpline
 70
8
 71
3
 72
8
 73
4
 74
0
 40
0
 40
0
 40
0
 40
0
 40
1
 40
1
 40
1
 40
1
 10
178.165604
 20
124.578022
 30
0.0
 10
178.514843
 20
124.376336
 30
0.0
 10
178.961454
 20
124.495936
 30
0.0
 10
179.163158
 20
124.845163
 30
0.0
  0
LWPOLYLINE
  5
148
100
AcDbEntity
  8
servo_mount
 62
7
100
AcDbPolyline
 90
2
 70
0
 10
180.721554
 20
127.464643
 30
0.0
 10
179.197554
 20
124.861143
 30
0.0
  0
SPLINE
  5
149
100
AcDbEntity
  8
servo_mount
 62
7
100
AcDbSpline
 70
8
 71
3
 72
8
 73
4
 74
0
 40
0
 40
0
 40
0
 40
0
 40
1
 40
1
 40
1
 40
1
 10
228.888842
 20
130.496845
 30
0.0
 10
229.090443
 20
130.147558
 30
0.0
 10
229.537022
 20
130.027823
 30
0.0
 10
229.886318
 20
130.229410
 30
0.0
  0
SPLINE
  5
14a
100
AcDbEntity
  8
servo_mount
 62
7
100
AcDbSpline
 70
8
 71
3
 72
8
 73
4
 74
0
 40
0
 40
0
 40
0
 40
0
 40
1
 40
1
 40
1
 40
1
 10
229.886318
 20
130.229410
 30
0.0
 10
230.235614
 20
130.430996
 30
0.0
 10
230.355369
 20
130.877567
 30
0.0
 10
230.153801
 20
131.226873
 30
0.0
  0
LWPOLYLINE
  5
14b
100
AcDbEntity
  8
servo_mount
 62
7
100
AcDbPolyline
 90
2
 70
0
 10
177.864054
 20
125.623143
 30
0.0
 10
179.388054
 20
128.226643
 30
0.0
  0
SPLINE
  5
14c
100
AcDbEntity
  8
servo_mount
 62
7
100
AcDbSpline
 70
8
 71
3
 72
8
 73
4
 74
0
 40
0
 40
0
 40
0
 40
0
 40
1
 40
1
 40
1
 40
1
 10
228.693230
 20
133.830493
 30
0.0
 10
228.491596
 20
134.179760
 30
0.0
 10
228.045007
 20
134.299452
 30
0.0
 10
227.695731
 20
134.097833
 30
0.0
  0
SPLINE
  5
14d
100
AcDbEntity
  8
servo_mount
 62
7
100
AcDbSpline
 70
8
 71
3
 72
8
 73
4
 74
0
 40
0
 40
0
 40
0
 40
0
 40
1
 40
1
 40
1
 40
1
 10
227.695731
 20
134.097833
 30
0.0
 10
227.346455
 20
133.896214
 30
0.0
 10
227.226743
 20
133.449634
 30
0.0
 10
227.428343
 20
133.100348
 30
0.0
  0
LWPOLYLINE
  5
14e
100
AcDbEntity
  8
servo_mount
 62
7
100
AcDbPolyline
 90
2
 70
0
 10
228.918054
 20
130.512643
 30
0.0
 10
227.394054
 20
133.116143
 30
0.0
  0
SPLINE
  5
14f
100
AcDbEntity
  8
servo_mount
 62
7
100
AcDbSpline
 70
8
 71
3
 72
8
 73
4
 74
0
 40
0
 40
0
 40
0
 40
0
 40
1
 40
1
 40
1
 40
1
 10
232.190842
 20
124.845348
 30
0.0
 10
232.392443
 20
124.496061
 30
0.0
 10
232.839022
 20
124.376327
 30
0.0
 10
233.188318
 20
124.577913
 30
0.0
  0
SPLINE
  5
150
100
AcDbEntity
  8
servo_mount
 62
7
100
AcDbSpline
 70
8
 71
3
 72
8
 73
4
 74
0
 40
0
 40
0
 40
0
 40
0
 40
1
 40
1
 40
1
 40
1
 10
233.188318
 20
124.577913
 30
0.0
 10
233.537614
 20
124.779500
 30
0.0
 10
233.657369
 20
125.226070
 30
0.0
 10
233.455801
 20
125.575377
 30
0.0
  0
LWPOLYLINE
  5
151
100
AcDbEntity
  8
servo_mount
 62
7
100
AcDbPolyline
 90
2
 70
0
 10
228.664054
 20
133.814643
 30
0.0
 10
230.188054
 20
131.211143
 30
0.0
  0
SPLINE
  5
152
100
AcDbEntity
  8
servo_mount
 62
7
100
AcDbSpline
 70
8
 71
3
 72
8
 73
4
 74
0
 40
0
 40
0
 40
0
 40
0
 40
1
 40
1
 40
1
 40
1
 10
231.931730
 20
128.178996
 30
0.0
 10
231.730096
 20
128.528263
 30
0.0
 10
231.283507
 20
128.647955
 30
0.0
 10
230.934231
 20
128.446336
 30
0.0
  0
SPLINE
  5
153
100
AcDbEntity
  8
servo_mount
 62
7
100
AcDbSpline
 70
8
 71
3
 72
8
 73
4
 74
0
 40
0
 40
0
 40
0
 40
0
 40
1
 40
1
 40
1
 40
1
 10
230.934231
 20
128.446336
 30
0.0
 10
230.584955
 20
128.244718
 30
0.0
 10
230.465243
 20
127.798138
 30
0.0
 10
230.666843
 20
127.448851
 30
0.0
  0
LWPOLYLINE
  5
154
100
AcDbEntity
  8
servo_mount
 62
7
100
AcDbPolyline
 90
2
 70
0
 10
232.156554
 20
124.861143
 30
0.0
 10
230.632554
 20
127.464643
 30
0.0
  0
SPLINE
  5
155
100
AcDbEntity
  8
servo_mount
 62
7
100
AcDbSpline
 70
8
 71
3
 72
8
 73
4
 74
0
 40
0
 40
0
 40
0
 40
0
 40
1
 40
1
 40
1
 40
1
 10
183.925664
 20
133.100162
 30
0.0
 10
184.127366
 20
133.449393
 30
0.0
 10
184.007784
 20
133.896014
 30
0.0
 10
183.658562
 20
134.097732
 30
0.0
  0
SPLINE
  5
156
100
AcDbEntity
  8
servo_mount
 62
7
100
AcDbSpline
 70
8
 71
3
 72
8
 73
4
 74
0
 40
0
 40
0
 40
0
 40
0
 40
1
 40
1
 40
1
 40
1
 10
183.658562
 20
134.097732
 30
0.0
 10
183.309340
 20
134.299450
 30
0.0
 10
182.862715
 20
134.179889
 30
0.0
 10
182.660979
 20
133.830678
 30
0.0
  0
LWPOLYLINE
  5
157
100
AcDbEntity
  8
servo_mount
 62
7
100
AcDbPolyline
 90
2
 70
0
 10
231.966054
 20
128.226643
 30
0.0
 10
233.426554
 20
125.623143
 30
0.0
  0
SPLINE
  5
158
100
AcDbEntity
  8
servo_mount
 62
7
100
AcDbSpline
 70
8
 71
3
 72
8
 73
4
 74
0
 40
0
 40
0
 40
0
 40
0
 40
1
 40
1
 40
1
 40
1
 10
181.136915
 20
131.227058
 30
0.0
 10
180.935244
 20
130.877812
 30
0.0
 10
181.054866
 20
130.431204
 30
0.0
 10
181.404104
 20
130.229518
 30
0.0
  0
SPLINE
  5
159
100
AcDbEntity
  8
servo_mount
 62
7
100
AcDbSpline
 70
8
 71
3
 72
8
 73
4
 74
0
 40
0
 40
0
 40
0
 40
0
 40
1
 40
1
 40
1
 40
1
 10
181.404104
 20
130.229518
 30
0.0
 10
181.753343
 20
130.027833
 30
0.0
 10
182.199954
 20
130.147432
 30
0.0
 10
182.401658
 20
130.496660
 30
0.0
  0
LWPOLYLINE
  5
15a
100
AcDbEntity
  8
servo_mount
 62
7
100
AcDbPolyline
 90
2
 70
0
 10
183.960054
 20
133.116143
 30
0.0
 10
182.436054
 20
130.512643
 30
0.0
  0
SPLINE
  5
15b
100
AcDbEntity
  8
servo_mount
 62
7
100
AcDbSpline
 70
8
 71
3
 72
8
 73
4
 74
0
 40
0
 40
0
 40
0
 40
0
 40
1
 40
1
 40
1
 40
1
 10
200.946373
 20
87.205647
 30
0.0
 10
200.543081
 20
87.205687
 30
0.0
 10
200.216108
 20
86.878797
 30
0.0
 10
200.216050
 20
86.475505
 30
0.0
  0
SPLINE
  5
15c
100
AcDbEntity
  8
servo_mount
 62
7
100
AcDbSpline
 70
8
 71
3
 72
8
 73
4
 74
0
 40
0
 40
0
 40
0
 40
0
 40
1
 40
1
 40
1
 40
1
 10
200.216050
 20
86.475505
 30
0.0
 10
200.215992
 20
86.072213
 30
0.0
 10
200.542865
 20
85.745226
 30
0.0
 10
200.946157
 20
85.745147
 30
0.0
  0
LWPOLYLINE
  5
15d
100
AcDbEntity
  8
servo_mount
 62
7
100
AcDbPolyline
 90
2
 70
0
 10
181.166054
 20
131.211143
 30
0.0
 10
182.626554
 20
133.814643
 30
0.0
  0
SPLINE
  5
15e
100
AcDbEntity
  8
servo_mount
 62
7
100
AcDbSpline
 70
8
 71
3
 72
8
 73
4
 74
0
 40
0
 40
0
 40
0
 40
0
 40
1
 40
1
 40
1
 40
1
 10
203.930727
 20
85.745147
 30
0.0
 10
204.334019
 20
85.745106
 30
0.0
 10
204.660992
 20
86.071996
 30
0.0
 10
204.661050
 20
86.475288
 30
0.0
  0
SPLINE
  5
15f
100
AcDbEntity
  8
servo_mount
 62
7
100
AcDbSpline
 70
8
 71
3
 72
8
 73
4
 74
0
 40
0
 40
0
 40
0
 40
0
 40
1
 40
1
 40
1
 40
1
 10
204.661050
 20
86.475288
 30
0.0
 10
204.661108
 20
86.878580
 30
0.0
 10
204.334236
 20
87.205567
 30
0.0
 10
203.930944
 20
87.205647
 30
0.0
  0
LWPOLYLINE
  5
160
100
AcDbEntity
  8
servo_mount
 62
7
100
AcDbPolyline
 90
2
 70
0
 10
200.914554
 20
87.205647
 30
0.0
 10
203.899054
 20
87.205647
 30
0.0
  0
LWPOLYLINE
  5
161
100
AcDbEntity
  8
servo_mount
 62
7
100
AcDbPolyline
 90
2
 70
0
 10
203.899054
 20
85.745147
 30
0.0
 10
200.914554
 20
85.745147
 30
0.0
  0
LWPOLYLINE
  5
162
100
AcDbEntity
  8
servo_mount
 62
7
100
AcDbPolyline
 90
9
 70
0
 10
231.648554
 20
138.704143
 30
0.0
 10
218.631054
 20
131.211143
 30
0.0
 10
192.659554
 20
131.211143
 30
0.0
 10
179.705554
 20
138.704143
 30
0.0
 10
172.212554
 20
125.750143
 30
0.0
 10
185.166554
 20
118.257143
 30
0.0
 10
198.184057
 20
95.714643
 30
0.0
 10
198.184057
 20
80.728647
 30
0.0
 10
213.168872
 20
80.690582
 30
0.0
  0
SPLINE
  5
163
100
AcDbEntity
  8
servo_mount
 62
7
100
AcDbSpline
 70
8
 71
3
 72
8
 73
4
 74
0
 40
0
 40
0
 40
0
 40
0
 40
1
 40
1
 40
1
 40
1
 10
213.170054
 20
115.050393
 30
0.0
 10
213.170054
 20
119.206052
 30
0.0
 10
209.801326
 20
122.574946
 30
0.0
 10
205.645667
 20
122.575143
 30
0.0
  0
SPLINE
  5
164
100
AcDbEntity
  8
servo_mount
 62
7
100
AcDbSpline
 70
8
 71
3
 72
8
 73
4
 74
0
 40
0
 40
0
 40
0
 40
0
 40
1
 40
1
 40
1
 40
1
 10
205.645667
 20
122.575143
 30
0.0
 10
201.490001
 20
122.575341
 30
0.0
 10
198.120952
 20
119.206779
 30
0.0
 10
198.120554
 20
115.051113
 30
0.0
  0
SPLINE
  5
165
100
AcDbEntity
  8
servo_mount
 62
7
100
AcDbSpline
 70
8
 71
3
 72
8
 73
4
 74
0
 40
0
 40
0
 40
0
 40
0
 40
1
 40
1
 40
1
 40
1
 10
198.120554
 20
115.051113
 30
0.0
 10
198.120215
 20
110.895447
 30
0.0
 10
201.488562
 20
107.526236
 30
0.0
 10
205.644221
 20
107.525643
 30
0.0
  0
SPLINE
  5
166
100
AcDbEntity
  8
servo_mount
 62
7
100
AcDbSpline
 70
8
 71
3
 72
8
 73
4
 74
0
 40
0
 40
0
 40
0
 40
0
 40
1
 40
1
 40
1
 40
1
 10
205.644221
 20
107.525643
 30
0.0
 10
209.799887
 20
107.524938
 30
0.0
 10
213.169260
 20
110.893281
 30
0.0
 10
213.170054
 20
115.048947
 30
0.0
  0
LWPOLYLINE
  5
167
100
AcDbEntity
  8
servo_mount
 62
7
100
AcDbPolyline
 90
5
 70
0
 10
213.170054
 20
80.728647
 30
0.0
 10
213.170054
 20
95.714643
 30
0.0
 10
226.187554
 20
118.257143
 30
0.0
 10
239.141554
 20
125.750143
 30
0.0
 10
231.648554
 20
138.704143
 30
0.0
  0
ENDSEC
  0
SECTION
  2
OBJECTS
  0
DICTIONARY
  5
C
330
0
100
AcDbDictionary
  3
ACAD_GROUP
350
D
  3
ACAD_MLINESTYLE
350
17
  0
DICTIONARY
  5
D
330
C
100
AcDbDictionary
  0
DICTIONARY
  5
1A
330
C
100
AcDbDictionary
  0
DICTIONARY
  5
17
330
C
100
AcDbDictionary
  3
STANDARD
350
18
  0
DICTIONARY
  5
19
330
C
100
AcDbDictionary
  0
ENDSEC
  0
EOF
