<?xml version="1.0" encoding="UTF-8" standalone="no"?>
<!-- Created with Inkscape (http://www.inkscape.org/) -->

<svg
   xmlns:dc="http://purl.org/dc/elements/1.1/"
   xmlns:cc="http://creativecommons.org/ns#"
   xmlns:rdf="http://www.w3.org/1999/02/22-rdf-syntax-ns#"
   xmlns:svg="http://www.w3.org/2000/svg"
   xmlns="http://www.w3.org/2000/svg"
   xmlns:sodipodi="http://sodipodi.sourceforge.net/DTD/sodipodi-0.dtd"
   xmlns:inkscape="http://www.inkscape.org/namespaces/inkscape"
   id="svg4136"
   version="1.1"
   inkscape:version="0.91 r13725"
   xml:space="preserve"
   width="297mm"
   height="210mm"
   viewBox="0 0 1052.3622 744.09449"
   sodipodi:docname="servo mount.svg"><metadata
     id="metadata4142"><rdf:RDF><cc:Work
         rdf:about=""><dc:format>image/svg+xml</dc:format><dc:type
           rdf:resource="http://purl.org/dc/dcmitype/StillImage" /><dc:title></dc:title></cc:Work></rdf:RDF></metadata><defs
     id="defs4140"><clipPath
       clipPathUnits="userSpaceOnUse"
       id="clipPath4150"><path
         d="m 0,0 0,740.88 1447.2,0 L 1447.2,0 0,0"
         id="path4152"
         inkscape:connector-curvature="0" /></clipPath></defs><sodipodi:namedview
     pagecolor="#ffffff"
     bordercolor="#666666"
     borderopacity="1"
     objecttolerance="10"
     gridtolerance="10"
     guidetolerance="10"
     inkscape:pageopacity="0"
     inkscape:pageshadow="2"
     inkscape:window-width="1920"
     inkscape:window-height="1017"
     id="namedview4138"
     showgrid="false"
     inkscape:zoom="0.86171769"
     inkscape:cx="318.75112"
     inkscape:cy="366.52096"
     inkscape:window-x="-8"
     inkscape:window-y="-8"
     inkscape:window-maximized="1"
     inkscape:current-layer="g4148"
     units="mm" /><g
     id="g4144"
     inkscape:groupmode="layer"
     inkscape:label="servo mount"
     transform="matrix(1.25,0,0,-1.25,0,744.09449)"><g
       id="g4146"
       style="stroke:#000000;stroke-opacity:1"><g
         id="g4148"
         clip-path="url(#clipPath4150)"
         style="stroke:#000000;stroke-opacity:1"><g
           id="g4158"
           transform="matrix(-0.50014,-0.86595,0.86595,-0.50014,179.42841,317.5127)"
           style="stroke:#000000;stroke-opacity:1;fill:none;stroke-width:0.79999623;stroke-miterlimit:6.12903214;stroke-dasharray:none"><path
             d="M 2.07,0 C 2.07,1.14319 1.14329,2.06995 1e-4,2.07 -1.14309,2.07005 -2.06989,1.14339 -2.07,2e-4"
             style="fill:none;stroke:#000000;stroke-width:0.79999623;stroke-linecap:round;stroke-linejoin:round;stroke-miterlimit:6.12903214;stroke-dasharray:none;stroke-opacity:1"
             id="path4160"
             inkscape:connector-curvature="0" /></g><path
           d="m 178.43839,315.80271 -14.75998,8.45999"
           style="fill:none;stroke:#000000;stroke-width:0.8;stroke-linecap:round;stroke-linejoin:round;stroke-miterlimit:6.12903214;stroke-dasharray:none;stroke-opacity:1"
           id="path4162"
           inkscape:connector-curvature="0" /><g
           id="g4164"
           transform="matrix(0.50006,0.86599,-0.86599,0.50006,164.6684,326.15271)"
           style="stroke:#000000;stroke-opacity:1;fill:none;stroke-width:0.80000053;stroke-miterlimit:6.12903214;stroke-dasharray:none"><path
             d="M 2.07,0 C 2.07,1.14319 1.14329,2.06995 1e-4,2.07 -1.14309,2.07005 -2.06989,1.14339 -2.07,2e-4"
             style="fill:none;stroke:#000000;stroke-width:0.80000053;stroke-linecap:round;stroke-linejoin:round;stroke-miterlimit:6.12903214;stroke-dasharray:none;stroke-opacity:1"
             id="path4166"
             inkscape:connector-curvature="0" /></g><path
           d="m 165.83839,327.8627 14.76001,-8.45999"
           style="fill:none;stroke:#000000;stroke-width:0.8;stroke-linecap:round;stroke-linejoin:round;stroke-miterlimit:6.12903214;stroke-dasharray:none;stroke-opacity:1"
           id="path4168"
           inkscape:connector-curvature="0" /><g
           id="g4170"
           transform="matrix(-0.49997,0.86604,-0.86604,-0.49997,287.42841,350.09271)"
           style="stroke:#000000;stroke-opacity:1;fill:none;stroke-width:0.80000189;stroke-miterlimit:6.12903214;stroke-dasharray:none"><path
             d="M 2.07,0 C 2.07,1.14319 1.14329,2.06995 1e-4,2.07 -1.14309,2.07005 -2.06989,1.14339 -2.07,2e-4"
             style="fill:none;stroke:#000000;stroke-width:0.80000189;stroke-linecap:round;stroke-linejoin:round;stroke-miterlimit:6.12903214;stroke-dasharray:none;stroke-opacity:1"
             id="path4172"
             inkscape:connector-curvature="0" /></g><path
           d="m 286.43842,351.9827 14.75995,8.45999"
           style="fill:none;stroke:#000000;stroke-width:0.8;stroke-linecap:round;stroke-linejoin:round;stroke-miterlimit:6.12903214;stroke-dasharray:none;stroke-opacity:1"
           id="path4174"
           inkscape:connector-curvature="0" /><g
           id="g4176"
           transform="matrix(0.49989,-0.86609,0.86609,0.49989,302.18842,358.55271)"
           style="stroke:#000000;stroke-opacity:1;fill:none;stroke-width:0.79999924;stroke-miterlimit:6.12903214;stroke-dasharray:none"><path
             d="M 2.07,0 C 2.07,1.14319 1.14329,2.06995 1e-4,2.07 -1.14309,2.07005 -2.06989,1.14339 -2.07,2e-4"
             style="fill:none;stroke:#000000;stroke-width:0.79999924;stroke-linecap:round;stroke-linejoin:round;stroke-miterlimit:6.12903214;stroke-dasharray:none;stroke-opacity:1"
             id="path4178"
             inkscape:connector-curvature="0" /></g><path
           d="M 303.17841,356.84271 288.5984,348.2027"
           style="fill:none;stroke:#000000;stroke-width:0.8;stroke-linecap:round;stroke-linejoin:round;stroke-miterlimit:6.12903214;stroke-dasharray:none;stroke-opacity:1"
           id="path4180"
           inkscape:connector-curvature="0" /><path
           d="m 263.7584,240.2927 c 0,1.14318 -0.9267,2.06994 -2.06989,2.07 -1.14322,5e-5 -2.07,-0.92662 -2.0701,-2.06981"
           style="fill:none;stroke:#000000;stroke-width:0.8;stroke-linecap:round;stroke-linejoin:round;stroke-miterlimit:6.12903214;stroke-dasharray:none;stroke-opacity:1"
           id="path4182"
           inkscape:connector-curvature="0" /><path
           d="m 263.7584,240.38269 0,-17.09999"
           style="fill:none;stroke:#000000;stroke-width:0.8;stroke-linecap:round;stroke-linejoin:round;stroke-miterlimit:6.12903214;stroke-dasharray:none;stroke-opacity:1"
           id="path4184"
           inkscape:connector-curvature="0" /><g
           id="g4186"
           transform="matrix(-1,1e-4,-1e-4,-1,261.68842,223.37271)"
           style="stroke:#000000;stroke-opacity:1;fill:none;stroke-width:0.8;stroke-miterlimit:6.12903214;stroke-dasharray:none"><path
             d="M 2.07,0 C 2.07,1.14319 1.14329,2.06995 1e-4,2.07 -1.14309,2.07005 -2.06989,1.14339 -2.07,2e-4"
             style="fill:none;stroke:#000000;stroke-width:0.8;stroke-linecap:round;stroke-linejoin:round;stroke-miterlimit:6.12903214;stroke-dasharray:none;stroke-opacity:1"
             id="path4188"
             inkscape:connector-curvature="0" /></g><path
           d="m 259.43839,223.2827 0,17.09999"
           style="fill:none;stroke:#000000;stroke-width:0.8;stroke-linecap:round;stroke-linejoin:round;stroke-miterlimit:6.12903214;stroke-dasharray:none;stroke-opacity:1"
           id="path4190"
           inkscape:connector-curvature="0" /><path
           d="m 382.73841,240.2927 c 0,1.14318 -0.9267,2.06994 -2.06989,2.07 -1.14318,5e-5 -2.07,-0.92662 -2.07012,-2.06981"
           style="fill:none;stroke:#000000;stroke-width:0.8;stroke-linecap:round;stroke-linejoin:round;stroke-miterlimit:6.12903214;stroke-dasharray:none;stroke-opacity:1"
           id="path4192"
           inkscape:connector-curvature="0" /><path
           d="m 382.73841,240.38269 0,-17.09999"
           style="fill:none;stroke:#000000;stroke-width:0.8;stroke-linecap:round;stroke-linejoin:round;stroke-miterlimit:6.12903214;stroke-dasharray:none;stroke-opacity:1"
           id="path4194"
           inkscape:connector-curvature="0" /><g
           id="g4196"
           transform="matrix(-1,1e-4,-1e-4,-1,380.6684,223.37271)"
           style="stroke:#000000;stroke-opacity:1;fill:none;stroke-width:0.8;stroke-miterlimit:6.12903214;stroke-dasharray:none"><path
             d="M 2.07,0 C 2.07,1.14319 1.14329,2.06995 1e-4,2.07 -1.14309,2.07005 -2.06989,1.14339 -2.07,2e-4"
             style="fill:none;stroke:#000000;stroke-width:0.8;stroke-linecap:round;stroke-linejoin:round;stroke-miterlimit:6.12903214;stroke-dasharray:none;stroke-opacity:1"
             id="path4198"
             inkscape:connector-curvature="0" /></g><path
           d="m 378.5984,223.2827 0,17.09999"
           style="fill:none;stroke:#000000;stroke-width:0.8;stroke-linecap:round;stroke-linejoin:round;stroke-miterlimit:6.12903214;stroke-dasharray:none;stroke-opacity:1"
           id="path4200"
           inkscape:connector-curvature="0" /><g
           id="g4202"
           transform="matrix(0.49989,-0.86609,0.86609,0.49989,242.6084,461.69269)"
           style="stroke:#000000;stroke-opacity:1;fill:none;stroke-width:0.79999924;stroke-miterlimit:6.12903214;stroke-dasharray:none"><path
             d="M 2.07,0 C 2.07,1.14319 1.14329,2.06995 1e-4,2.07 -1.14309,2.07005 -2.06989,1.14339 -2.07,2e-4"
             style="fill:none;stroke:#000000;stroke-width:0.79999924;stroke-linecap:round;stroke-linejoin:round;stroke-miterlimit:6.12903214;stroke-dasharray:none;stroke-opacity:1"
             id="path4204"
             inkscape:connector-curvature="0" /></g><path
           d="m 243.77839,459.80271 -14.75998,-8.46"
           style="fill:none;stroke:#000000;stroke-width:0.8;stroke-linecap:round;stroke-linejoin:round;stroke-miterlimit:6.12903214;stroke-dasharray:none;stroke-opacity:1"
           id="path4206"
           inkscape:connector-curvature="0" /><g
           id="g4208"
           transform="matrix(-0.49997,0.86604,-0.86604,-0.49997,228.02839,453.2327)"
           style="stroke:#000000;stroke-opacity:1;fill:none;stroke-width:0.80000189;stroke-miterlimit:6.12903214;stroke-dasharray:none"><path
             d="M 2.07,0 C 2.07,1.14319 1.14329,2.06995 1e-4,2.07 -1.14309,2.07005 -2.06989,1.14339 -2.07,2e-4"
             style="fill:none;stroke:#000000;stroke-width:0.80000189;stroke-linecap:round;stroke-linejoin:round;stroke-miterlimit:6.12903214;stroke-dasharray:none;stroke-opacity:1"
             id="path4210"
             inkscape:connector-curvature="0" /></g><path
           d="m 226.8584,455.12271 14.76001,8.45999"
           style="fill:none;stroke:#000000;stroke-width:0.8;stroke-linecap:round;stroke-linejoin:round;stroke-miterlimit:6.12903214;stroke-dasharray:none;stroke-opacity:1"
           id="path4212"
           inkscape:connector-curvature="0" /><g
           id="g4214"
           transform="matrix(0.50006,0.86599,-0.86599,0.50006,105.26838,223.0127)"
           style="stroke:#000000;stroke-opacity:1;fill:none;stroke-width:0.80000053;stroke-miterlimit:6.12903214;stroke-dasharray:none"><path
             d="M 2.07,0 C 2.07,1.14319 1.14329,2.06995 1e-4,2.07 -1.14309,2.07005 -2.06989,1.14339 -2.07,2e-4"
             style="fill:none;stroke:#000000;stroke-width:0.80000053;stroke-linecap:round;stroke-linejoin:round;stroke-miterlimit:6.12903214;stroke-dasharray:none;stroke-opacity:1"
             id="path4216"
             inkscape:connector-curvature="0" /></g><path
           d="m 106.2584,224.9027 14.76001,-8.64"
           style="fill:none;stroke:#000000;stroke-width:0.8;stroke-linecap:round;stroke-linejoin:round;stroke-miterlimit:6.12903214;stroke-dasharray:none;stroke-opacity:1"
           id="path4218"
           inkscape:connector-curvature="0" /><g
           id="g4220"
           transform="matrix(-0.50006,-0.86599,0.86599,-0.50006,119.8484,214.55271)"
           style="stroke:#000000;stroke-opacity:1;fill:none;stroke-width:0.80000053;stroke-miterlimit:6.12903214;stroke-dasharray:none"><path
             d="M 2.07,0 C 2.07,1.14319 1.14329,2.06995 1e-4,2.07 -1.14309,2.07005 -2.06989,1.14339 -2.07,2e-4"
             style="fill:none;stroke:#000000;stroke-width:0.80000053;stroke-linecap:round;stroke-linejoin:round;stroke-miterlimit:6.12903214;stroke-dasharray:none;stroke-opacity:1"
             id="path4222"
             inkscape:connector-curvature="0" /></g><path
           d="m 118.8584,212.66271 -14.76,8.45999"
           style="fill:none;stroke:#000000;stroke-width:0.8;stroke-linecap:round;stroke-linejoin:round;stroke-miterlimit:6.12903214;stroke-dasharray:none;stroke-opacity:1"
           id="path4224"
           inkscape:connector-curvature="0" /><path
           d="m 164.21839,455.66269 56.70001,-98.1"
           style="fill:none;stroke:#000000;stroke-width:0.8;stroke-linecap:round;stroke-linejoin:round;stroke-miterlimit:6.12903214;stroke-dasharray:none;stroke-opacity:1"
           id="path4226"
           inkscape:connector-curvature="0" /><g
           id="g4228"
           transform="matrix(-0.86609,-0.49989,0.49989,-0.86609,213.62842,353.3327)"
           style="stroke:#000000;stroke-opacity:1;fill:none;stroke-width:0.79999924;stroke-miterlimit:6.12903214;stroke-dasharray:none"><path
             d="M 8.55,0 C 8.55,4.72187 4.72228,8.54977 4.1e-4,8.55 -4.72147,8.55023 -8.54955,4.72269 -8.55,8.2e-4"
             style="fill:none;stroke:#000000;stroke-width:0.79999924;stroke-linecap:round;stroke-linejoin:round;stroke-miterlimit:6.12903214;stroke-dasharray:none;stroke-opacity:1"
             id="path4230"
             inkscape:connector-curvature="0" /></g><path
           d="m 206.33839,349.10269 -56.69999,98.10001 -78.660002,-45.35999 0,-198.36001 78.660002,-45.36 56.69999,98.1"
           style="fill:none;stroke:#000000;stroke-width:0.8;stroke-linecap:round;stroke-linejoin:round;stroke-miterlimit:6.12903214;stroke-dasharray:none;stroke-opacity:1"
           id="path4232"
           inkscape:connector-curvature="0" /><g
           id="g4234"
           transform="matrix(0.86595,-0.50014,0.50014,0.86595,213.62842,251.99271)"
           style="stroke:#000000;stroke-opacity:1;fill:none;stroke-width:0.79999623;stroke-miterlimit:6.12903214;stroke-dasharray:none"><path
             d="M 8.55,0 C 8.55,4.72187 4.72228,8.54977 4.1e-4,8.55 -4.72147,8.55023 -8.54955,4.72269 -8.55,8.2e-4"
             style="fill:none;stroke:#000000;stroke-width:0.79999623;stroke-linecap:round;stroke-linejoin:round;stroke-miterlimit:6.12903214;stroke-dasharray:none;stroke-opacity:1"
             id="path4236"
             inkscape:connector-curvature="0" /></g><path
           d="m 220.9184,247.7627 -56.70001,-98.1 78.66,-45.36 171.9,99.18 0,90.72 -113.39997,0"
           style="fill:none;stroke:#000000;stroke-width:0.8;stroke-linecap:round;stroke-linejoin:round;stroke-miterlimit:6.12903214;stroke-dasharray:none;stroke-opacity:1"
           id="path4238"
           inkscape:connector-curvature="0" /><g
           id="g4240"
           transform="matrix(1e-4,1,-1,1e-4,301.2884,302.7527)"
           style="stroke:#000000;stroke-opacity:1;fill:none;stroke-width:0.8;stroke-miterlimit:6.12903214;stroke-dasharray:none"><path
             d="M 8.55,0 C 8.55,4.72187 4.72228,8.54977 4.1e-4,8.55 -4.72147,8.55023 -8.54955,4.72269 -8.55,8.2e-4"
             style="fill:none;stroke:#000000;stroke-width:0.8;stroke-linecap:round;stroke-linejoin:round;stroke-miterlimit:6.12903214;stroke-dasharray:none;stroke-opacity:1"
             id="path4242"
             inkscape:connector-curvature="0" /></g><path
           d="m 301.37842,311.1227 113.39997,0 0,90.72001 -171.9,99.18 -78.66,-45.36002"
           style="fill:none;stroke:#000000;stroke-width:0.8;stroke-linecap:round;stroke-linejoin:round;stroke-miterlimit:6.12903214;stroke-dasharray:none;stroke-opacity:1"
           id="path4244"
           inkscape:connector-curvature="0" /><path
           d="m 246.83839,302.7527 c 0,2.23668 -1.81311,4.0499 -4.04981,4.05001 -2.23666,1e-4 -4.04996,-1.81295 -4.05017,-4.04963 -2.1e-4,-2.23667 1.81274,-4.05006 4.04941,-4.05038 2.23666,-3.2e-4 4.05014,1.81255 4.05057,4.04922"
           style="fill:none;stroke:#000000;stroke-width:0.8;stroke-linecap:round;stroke-linejoin:round;stroke-miterlimit:6.12903214;stroke-dasharray:none;stroke-opacity:1"
           id="path4246"
           inkscape:connector-curvature="0" /><path
           d="m 369.5984,373.49271 c 0,2.23666 -1.81312,4.04989 -4.04981,4.04999 -2.23669,1.2e-4 -4.04999,-1.81293 -4.05017,-4.04963 -2.4e-4,-2.23666 1.81274,-4.05004 4.04938,-4.05038 2.23669,-3e-4 4.05017,1.81256 4.0506,4.04923"
           style="fill:none;stroke:#000000;stroke-width:0.8;stroke-linecap:round;stroke-linejoin:round;stroke-miterlimit:6.12903214;stroke-dasharray:none;stroke-opacity:1"
           id="path4248"
           inkscape:connector-curvature="0" /><path
           d="m 246.83839,160.9127 c 0,2.23668 -1.81311,4.0499 -4.04981,4.05 -2.23666,1.1e-4 -4.04996,-1.81293 -4.05017,-4.04961 -2.1e-4,-2.23668 1.81274,-4.05007 4.04941,-4.05039 2.23666,-3.2e-4 4.05014,1.81255 4.05057,4.04922"
           style="fill:none;stroke:#000000;stroke-width:0.8;stroke-linecap:round;stroke-linejoin:round;stroke-miterlimit:6.12903214;stroke-dasharray:none;stroke-opacity:1"
           id="path4250"
           inkscape:connector-curvature="0" /><path
           d="m 124.07841,373.49271 c 0,2.23666 -1.81314,4.04989 -4.04981,4.04999 -2.23669,1.2e-4 -4.04999,-1.81293 -4.0502,-4.04963 -2.1e-4,-2.23666 1.81274,-4.05004 4.04941,-4.05038 2.23669,-3e-4 4.05017,1.81256 4.0506,4.04923"
           style="fill:none;stroke:#000000;stroke-width:0.8;stroke-linecap:round;stroke-linejoin:round;stroke-miterlimit:6.12903214;stroke-dasharray:none;stroke-opacity:1"
           id="path4252"
           inkscape:connector-curvature="0" /><g
           id="g4291"
           transform="matrix(1e-4,1,-1,1e-4,587.97158,245.12711)"
           style="fill:none;stroke:#000000;stroke-width:0.8;stroke-miterlimit:6.12903214;stroke-dasharray:none;stroke-opacity:1"><path
             d="M 2.07,0 C 2.07,1.14319 1.14329,2.06995 1e-4,2.07 -1.14309,2.07005 -2.06989,1.14339 -2.07,2e-4"
             style="fill:none;stroke:#000000;stroke-width:0.8;stroke-linecap:round;stroke-linejoin:round;stroke-miterlimit:6.12903214;stroke-dasharray:none;stroke-opacity:1"
             id="path4293"
             inkscape:connector-curvature="0" /></g><path
           d="m 587.88157,247.19711 8.64,0"
           style="fill:none;stroke:#000000;stroke-width:0.8;stroke-linecap:round;stroke-linejoin:round;stroke-miterlimit:6.12903214;stroke-dasharray:none;stroke-opacity:1"
           id="path4295"
           inkscape:connector-curvature="0" /><g
           id="g4297"
           transform="matrix(-1e-4,-1,1,-1e-4,596.43157,245.12711)"
           style="fill:none;stroke:#000000;stroke-width:0.8;stroke-miterlimit:6.12903214;stroke-dasharray:none;stroke-opacity:1"><path
             d="M 2.07,0 C 2.07,1.14319 1.14329,2.06995 1e-4,2.07 -1.14309,2.07005 -2.06989,1.14339 -2.07,2e-4"
             style="fill:none;stroke:#000000;stroke-width:0.8;stroke-linecap:round;stroke-linejoin:round;stroke-miterlimit:6.12903214;stroke-dasharray:none;stroke-opacity:1"
             id="path4299"
             inkscape:connector-curvature="0" /></g><path
           d="m 596.52157,243.05711 -8.64,0"
           style="fill:none;stroke:#000000;stroke-width:0.8;stroke-linecap:round;stroke-linejoin:round;stroke-miterlimit:6.12903214;stroke-dasharray:none;stroke-opacity:1"
           id="path4301"
           inkscape:connector-curvature="0" /><g
           id="g4303"
           transform="matrix(0.86595,-0.50014,0.50014,0.86595,510.39157,362.3071)"
           style="fill:none;stroke:#000000;stroke-width:0.79999623;stroke-miterlimit:6.12903214;stroke-dasharray:none;stroke-opacity:1"><path
             d="M 2.07,0 C 2.07,1.14319 1.14329,2.06995 1e-4,2.07 -1.14309,2.07005 -2.06989,1.14339 -2.07,2e-4"
             style="fill:none;stroke:#000000;stroke-width:0.79999623;stroke-linecap:round;stroke-linejoin:round;stroke-miterlimit:6.12903214;stroke-dasharray:none;stroke-opacity:1"
             id="path4305"
             inkscape:connector-curvature="0" /></g><path
           d="m 512.28157,361.3171 -4.32,-7.38"
           style="fill:none;stroke:#000000;stroke-width:0.8;stroke-linecap:round;stroke-linejoin:round;stroke-miterlimit:6.12903214;stroke-dasharray:none;stroke-opacity:1"
           id="path4307"
           inkscape:connector-curvature="0" /><g
           id="g4309"
           transform="matrix(-0.86599,0.50006,-0.50006,-0.86599,506.07157,354.9271)"
           style="fill:none;stroke:#000000;stroke-width:0.80000053;stroke-miterlimit:6.12903214;stroke-dasharray:none;stroke-opacity:1"><path
             d="M 2.07,0 C 2.07,1.14319 1.14329,2.06995 1e-4,2.07 -1.14309,2.07005 -2.06989,1.14339 -2.07,2e-4"
             style="fill:none;stroke:#000000;stroke-width:0.80000053;stroke-linecap:round;stroke-linejoin:round;stroke-miterlimit:6.12903214;stroke-dasharray:none;stroke-opacity:1"
             id="path4311"
             inkscape:connector-curvature="0" /></g><path
           d="m 504.18157,356.0971 4.32,7.38"
           style="fill:none;stroke:#000000;stroke-width:0.8;stroke-linecap:round;stroke-linejoin:round;stroke-miterlimit:6.12903214;stroke-dasharray:none;stroke-opacity:1"
           id="path4313"
           inkscape:connector-curvature="0" /><g
           id="g4315"
           transform="matrix(-0.86609,-0.49989,0.49989,-0.86609,650.61157,370.94709)"
           style="fill:none;stroke:#000000;stroke-width:0.79999924;stroke-miterlimit:6.12903214;stroke-dasharray:none;stroke-opacity:1"><path
             d="M 2.07,0 C 2.07,1.14319 1.14329,2.06995 1e-4,2.07 -1.14309,2.07005 -2.06989,1.14339 -2.07,2e-4"
             style="fill:none;stroke:#000000;stroke-width:0.79999924;stroke-linecap:round;stroke-linejoin:round;stroke-miterlimit:6.12903214;stroke-dasharray:none;stroke-opacity:1"
             id="path4317"
             inkscape:connector-curvature="0" /></g><path
           d="m 648.90157,369.9571 -4.32,7.38"
           style="fill:none;stroke:#000000;stroke-width:0.8;stroke-linecap:round;stroke-linejoin:round;stroke-miterlimit:6.12903214;stroke-dasharray:none;stroke-opacity:1"
           id="path4319"
           inkscape:connector-curvature="0" /><g
           id="g4321"
           transform="matrix(0.86604,0.49997,-0.49997,0.86604,646.47157,378.32709)"
           style="fill:none;stroke:#000000;stroke-width:0.80000189;stroke-miterlimit:6.12903214;stroke-dasharray:none;stroke-opacity:1"><path
             d="M 2.07,0 C 2.07,1.14319 1.14329,2.06995 1e-4,2.07 -1.14309,2.07005 -2.06989,1.14339 -2.07,2e-4"
             style="fill:none;stroke:#000000;stroke-width:0.80000189;stroke-linecap:round;stroke-linejoin:round;stroke-miterlimit:6.12903214;stroke-dasharray:none;stroke-opacity:1"
             id="path4323"
             inkscape:connector-curvature="0" /></g><path
           d="m 648.18157,379.3171 4.32,-7.38"
           style="fill:none;stroke:#000000;stroke-width:0.8;stroke-linecap:round;stroke-linejoin:round;stroke-miterlimit:6.12903214;stroke-dasharray:none;stroke-opacity:1"
           id="path4325"
           inkscape:connector-curvature="0" /><g
           id="g4327"
           transform="matrix(-0.86609,-0.49989,0.49989,-0.86609,659.97157,354.9271)"
           style="fill:none;stroke:#000000;stroke-width:0.79999924;stroke-miterlimit:6.12903214;stroke-dasharray:none;stroke-opacity:1"><path
             d="M 2.07,0 C 2.07,1.14319 1.14329,2.06995 1e-4,2.07 -1.14309,2.07005 -2.06989,1.14339 -2.07,2e-4"
             style="fill:none;stroke:#000000;stroke-width:0.79999924;stroke-linecap:round;stroke-linejoin:round;stroke-miterlimit:6.12903214;stroke-dasharray:none;stroke-opacity:1"
             id="path4329"
             inkscape:connector-curvature="0" /></g><path
           d="m 658.08157,353.9371 -4.32,7.38"
           style="fill:none;stroke:#000000;stroke-width:0.8;stroke-linecap:round;stroke-linejoin:round;stroke-miterlimit:6.12903214;stroke-dasharray:none;stroke-opacity:1"
           id="path4331"
           inkscape:connector-curvature="0" /><g
           id="g4333"
           transform="matrix(0.86604,0.49997,-0.49997,0.86604,655.65157,362.3071)"
           style="fill:none;stroke:#000000;stroke-width:0.80000189;stroke-miterlimit:6.12903214;stroke-dasharray:none;stroke-opacity:1"><path
             d="M 2.07,0 C 2.07,1.14319 1.14329,2.06995 1e-4,2.07 -1.14309,2.07005 -2.06989,1.14339 -2.07,2e-4"
             style="fill:none;stroke:#000000;stroke-width:0.80000189;stroke-linecap:round;stroke-linejoin:round;stroke-miterlimit:6.12903214;stroke-dasharray:none;stroke-opacity:1"
             id="path4335"
             inkscape:connector-curvature="0" /></g><path
           d="m 657.54157,363.4771 4.14,-7.38"
           style="fill:none;stroke:#000000;stroke-width:0.8;stroke-linecap:round;stroke-linejoin:round;stroke-miterlimit:6.12903214;stroke-dasharray:none;stroke-opacity:1"
           id="path4337"
           inkscape:connector-curvature="0" /><g
           id="g4339"
           transform="matrix(0.86595,-0.50014,0.50014,0.86595,519.57157,378.32709)"
           style="fill:none;stroke:#000000;stroke-width:0.79999623;stroke-miterlimit:6.12903214;stroke-dasharray:none;stroke-opacity:1"><path
             d="M 2.07,0 C 2.07,1.14319 1.14329,2.06995 1e-4,2.07 -1.14309,2.07005 -2.06989,1.14339 -2.07,2e-4"
             style="fill:none;stroke:#000000;stroke-width:0.79999623;stroke-linecap:round;stroke-linejoin:round;stroke-miterlimit:6.12903214;stroke-dasharray:none;stroke-opacity:1"
             id="path4341"
             inkscape:connector-curvature="0" /></g><path
           d="m 521.46157,377.3371 -4.32,-7.38"
           style="fill:none;stroke:#000000;stroke-width:0.8;stroke-linecap:round;stroke-linejoin:round;stroke-miterlimit:6.12903214;stroke-dasharray:none;stroke-opacity:1"
           id="path4343"
           inkscape:connector-curvature="0" /><g
           id="g4345"
           transform="matrix(-0.86599,0.50006,-0.50006,-0.86599,515.25157,370.94709)"
           style="fill:none;stroke:#000000;stroke-width:0.80000053;stroke-miterlimit:6.12903214;stroke-dasharray:none;stroke-opacity:1"><path
             d="M 2.07,0 C 2.07,1.14319 1.14329,2.06995 1e-4,2.07 -1.14309,2.07005 -2.06989,1.14339 -2.07,2e-4"
             style="fill:none;stroke:#000000;stroke-width:0.80000053;stroke-linecap:round;stroke-linejoin:round;stroke-miterlimit:6.12903214;stroke-dasharray:none;stroke-opacity:1"
             id="path4347"
             inkscape:connector-curvature="0" /></g><path
           d="m 513.54157,371.9371 4.14,7.38"
           style="fill:none;stroke:#000000;stroke-width:0.8;stroke-linecap:round;stroke-linejoin:round;stroke-miterlimit:6.12903214;stroke-dasharray:none;stroke-opacity:1"
           id="path4349"
           inkscape:connector-curvature="0" /><g
           id="g4351"
           transform="matrix(1e-4,1,-1,1e-4,569.61156,245.12711)"
           style="fill:none;stroke:#000000;stroke-width:0.8;stroke-miterlimit:6.12903214;stroke-dasharray:none;stroke-opacity:1"><path
             d="M 2.07,0 C 2.07,1.14319 1.14329,2.06995 1e-4,2.07 -1.14309,2.07005 -2.06989,1.14339 -2.07,2e-4"
             style="fill:none;stroke:#000000;stroke-width:0.8;stroke-linecap:round;stroke-linejoin:round;stroke-miterlimit:6.12903214;stroke-dasharray:none;stroke-opacity:1"
             id="path4353"
             inkscape:connector-curvature="0" /></g><path
           d="m 569.52157,247.19711 8.46,0"
           style="fill:none;stroke:#000000;stroke-width:0.8;stroke-linecap:round;stroke-linejoin:round;stroke-miterlimit:6.12903214;stroke-dasharray:none;stroke-opacity:1"
           id="path4355"
           inkscape:connector-curvature="0" /><g
           id="g4357"
           transform="matrix(-1e-4,-1,1,-1e-4,578.07156,245.12711)"
           style="fill:none;stroke:#000000;stroke-width:0.8;stroke-miterlimit:6.12903214;stroke-dasharray:none;stroke-opacity:1"><path
             d="M 2.07,0 C 2.07,1.14319 1.14329,2.06995 1e-4,2.07 -1.14309,2.07005 -2.06989,1.14339 -2.07,2e-4"
             style="fill:none;stroke:#000000;stroke-width:0.8;stroke-linecap:round;stroke-linejoin:round;stroke-miterlimit:6.12903214;stroke-dasharray:none;stroke-opacity:1"
             id="path4359"
             inkscape:connector-curvature="0" /></g><path
           d="m 577.98157,243.05711 -8.46,0"
           style="fill:none;stroke:#000000;stroke-width:0.8;stroke-linecap:round;stroke-linejoin:round;stroke-miterlimit:6.12903214;stroke-dasharray:none;stroke-opacity:1"
           id="path4361"
           inkscape:connector-curvature="0" /><path
           d="m 656.64157,393.1771 -36.9,-21.24 -73.62,0 -36.72,21.24 -21.24,-36.72 36.72,-21.24 36.90001,-63.9 0,-42.47999 42.47664,-0.1079"
           style="fill:none;stroke:#000000;stroke-width:0.8;stroke-linecap:round;stroke-linejoin:round;stroke-miterlimit:6.12903214;stroke-dasharray:none;stroke-opacity:1"
           id="path4363"
           inkscape:connector-curvature="0" /><path
           d="m 604.26157,228.83711 0,42.47999 36.9,63.9 36.72,21.24 -21.24,36.72"
           style="fill:none;stroke:#000000;stroke-width:0.8;stroke-linecap:round;stroke-linejoin:round;stroke-miterlimit:6.12903214;stroke-dasharray:none;stroke-opacity:1"
           id="path4365"
           inkscape:connector-curvature="0" /><path
           d="m 604.26157,326.1271 c 0,11.77982 -9.54915,21.32944 -21.32897,21.33 -11.77984,5.6e-4 -21.3299,-9.54812 -21.33103,-21.32796 -9.6e-4,-11.77984 9.54711,-21.33036 21.32693,-21.33204 11.77984,-0.002 21.33082,9.54606 21.33307,21.3259"
           style="fill:none;stroke:#000000;stroke-width:0.8;stroke-linecap:round;stroke-linejoin:round;stroke-miterlimit:6.12903214;stroke-dasharray:none;stroke-opacity:1"
           id="path4367"
           inkscape:connector-curvature="0" /></g></g></g></svg>